<?xml version="1.0" encoding="UTF-8"?>
<!DOCTYPE svg PUBLIC "-//W3C//DTD SVG 1.1//EN" "http://www.w3.org/Graphics/SVG/1.1/DTD/svg11.dtd">
<svg version="1.1" xmlns="http://www.w3.org/2000/svg" xmlns:xlink="http://www.w3.org/1999/xlink" x="0" y="0" width="647.636" height="647.636" viewBox="0, 0, 647.636, 647.636">
  <g id="Layer_2" transform="translate(-1.182, -1.182)">
    <g>
      <g id="path3773">
        <path d="M325,325.865 M359.806,416.53 C403.504,399.754 429.018,354.193 420.487,308.169 C411.956,262.144 371.808,228.754 325,228.754 C278.192,228.754 238.044,262.144 229.513,308.169 C220.982,354.193 246.496,399.754 290.194,416.53 L224.779,586.985 C98.919,538.677 25.43,407.461 49.995,274.906 C74.56,142.351 190.188,46.182 325,46.182 C459.812,46.182 575.44,142.351 600.005,274.906 C624.57,407.461 551.081,538.677 425.221,586.985 z" fill="#EEEEEE"/>
        <path d="M325,325.865 M359.806,416.53 C403.504,399.754 429.018,354.193 420.487,308.169 C411.956,262.144 371.808,228.754 325,228.754 C278.192,228.754 238.044,262.144 229.513,308.169 C220.982,354.193 246.496,399.754 290.194,416.53 L224.779,586.985 C98.919,538.677 25.43,407.461 49.995,274.906 C74.56,142.351 190.188,46.182 325,46.182 C459.812,46.182 575.44,142.351 600.005,274.906 C624.57,407.461 551.081,538.677 425.221,586.985 z" fill-opacity="0" stroke="#DDDDDD" stroke-width="23.307" stroke-linejoin="round"/>
      </g>
      <g>
        <path d="M46.182,575.534 L575.534,46.182 L603.818,74.466 L74.466,603.818 L46.182,575.534 z" fill="#FFBAB8"/>
        <path d="M46.182,575.534 L575.534,46.182 L603.818,74.466 L74.466,603.818 L46.182,575.534 z" fill-opacity="0" stroke="#FFFFFF" stroke-width="23.307"/>
      </g>
    </g>
  </g>
</svg>
