<?xml version="1.0" encoding="UTF-8"?>
<!DOCTYPE svg PUBLIC "-//W3C//DTD SVG 1.1//EN" "http://www.w3.org/Graphics/SVG/1.1/DTD/svg11.dtd">
<svg version="1.1" xmlns="http://www.w3.org/2000/svg" xmlns:xlink="http://www.w3.org/1999/xlink" x="0" y="0" width="49.846" height="44.895" viewBox="0, 0, 49.846, 44.895">
  <g id="Layer_5" transform="translate(-0.077, -2.552)">
    <path d="M25,9.423 Q29.089,9.423 32.788,10.494 Q36.585,11.662 39.798,13.707 Q43.011,15.751 45.542,18.575 Q48.171,21.495 49.923,25 Q48.171,28.505 45.639,31.328 Q43.011,34.249 39.798,36.293 Q36.585,38.338 32.886,39.409 Q29.089,40.577 25,40.577 Q20.911,40.577 17.212,39.506 Q13.415,38.338 10.202,36.293 Q6.989,34.249 4.458,31.425 Q1.829,28.505 0.077,25 Q1.829,21.495 4.361,18.672 Q6.989,15.751 10.202,13.707 Q13.415,11.662 17.114,10.591 Q20.911,9.423 25,9.423 z M36.683,17.309 Q37.072,18.282 37.267,19.353 Q37.462,20.424 37.462,21.593 Q37.462,26.752 33.859,30.355 Q30.16,34.054 25,34.054 Q19.84,34.054 16.238,30.452 Q12.538,26.752 12.538,21.593 Q12.538,20.424 12.733,19.353 Q12.928,18.282 13.317,17.309 Q13.123,17.406 13.025,17.504 Q12.831,17.601 12.733,17.698 Q10.494,19.061 8.644,20.911 Q6.794,22.761 5.431,25 Q6.794,27.239 8.644,29.089 Q10.494,30.939 12.733,32.302 Q15.459,34.054 18.575,34.93 Q21.69,35.904 25,35.904 Q28.31,35.904 31.425,35.028 Q34.541,34.054 37.267,32.302 Q39.506,30.939 41.356,29.089 Q43.206,27.239 44.569,25 Q43.206,22.761 41.356,20.911 Q39.506,19.061 37.267,17.698 Q37.169,17.601 37.072,17.504 Q36.877,17.406 36.683,17.309 z" fill="#59A727"/>
    <g>
      <path d="M3.552,44.272 L44.272,3.552 L46.448,5.728 L5.728,46.448 L3.552,44.272 z" fill="#FFFFFF"/>
      <path d="M3.552,44.272 L44.272,3.552 L46.448,5.728 L5.728,46.448 L3.552,44.272 z" fill-opacity="0" stroke="#FFFFFF" stroke-width="1.793"/>
    </g>
    <path d="M1.807,44.272 L42.526,3.552 L43.665,4.692 L2.946,45.411 L1.807,44.272 z" fill="#59A727"/>
  </g>
</svg>
