<?xml version="1.0" encoding="UTF-8"?>
<!DOCTYPE svg PUBLIC "-//W3C//DTD SVG 1.1//EN" "http://www.w3.org/Graphics/SVG/1.1/DTD/svg11.dtd">
<svg version="1.1" xmlns="http://www.w3.org/2000/svg" xmlns:xlink="http://www.w3.org/1999/xlink" x="0" y="0" width="583.43" height="564.803" viewBox="0, 0, 583.43, 564.803">
  <g id="Layer_1" transform="translate(-33.285, -42.599)">
    <g id="path3773">
      <path d="M325,334.282 M359.806,424.947 C403.504,408.171 429.018,362.61 420.487,316.586 C411.956,270.561 371.808,237.171 325,237.171 C278.192,237.171 238.044,270.561 229.513,316.586 C220.982,362.61 246.496,408.171 290.194,424.947 L224.779,595.401 C98.919,547.094 25.43,415.878 49.995,283.323 C74.56,150.767 190.188,54.599 325,54.599 C459.812,54.599 575.44,150.767 600.005,283.323 C624.57,415.878 551.081,547.094 425.221,595.401 z" fill="#3FA652"/>
      <path d="M325,334.282 M359.806,424.947 C403.504,408.171 429.018,362.61 420.487,316.586 C411.956,270.561 371.808,237.171 325,237.171 C278.192,237.171 238.044,270.561 229.513,316.586 C220.982,362.61 246.496,408.171 290.194,424.947 L224.779,595.401 C98.919,547.094 25.43,415.878 49.995,283.323 C74.56,150.767 190.188,54.599 325,54.599 C459.812,54.599 575.44,150.767 600.005,283.323 C624.57,415.878 551.081,547.094 425.221,595.401 z" fill-opacity="0" stroke="#21552A" stroke-width="23.307" stroke-linejoin="round"/>
    </g>
  </g>
</svg>
