<?xml version="1.0" encoding="UTF-8"?>
<!DOCTYPE svg PUBLIC "-//W3C//DTD SVG 1.1//EN" "http://www.w3.org/Graphics/SVG/1.1/DTD/svg11.dtd">
<svg version="1.1" xmlns="http://www.w3.org/2000/svg" xmlns:xlink="http://www.w3.org/1999/xlink" x="0" y="0" width="500" height="256" viewBox="0, 0, 500, 256">
  <g id="Layer_1">
    <path d="M-13.737,-11.322 L509.373,-11.322 L509.373,267.534 L-13.737,267.534 L-13.737,-11.322 z" fill="#59A727"/>
    <g>
      <path d="M145.069,72.232 L148.24,72.232 Q150.067,72.232 151.033,73.251 Q151.999,74.269 151.999,76.096 L151.999,83.089 Q151.999,85.189 150.981,86.187 Q149.962,87.184 148.051,87.184 L145.069,87.184 z M147.211,85.168 L148.198,85.168 Q149.101,85.168 149.479,84.717 Q149.857,84.265 149.857,83.299 L149.857,76.096 Q149.857,75.214 149.5,74.731 Q149.143,74.248 148.198,74.248 L147.211,74.248 z" fill="#1B1A19"/>
      <path d="M155.842,82.669 L155.842,84.118 Q155.842,84.622 156.126,84.895 Q156.409,85.168 156.892,85.168 Q157.501,85.168 157.701,84.811 Q157.9,84.454 157.942,84.097 L160.084,84.097 Q160.084,84.769 159.864,85.357 Q159.643,85.945 159.223,86.365 Q158.803,86.806 158.215,87.058 Q157.627,87.31 156.892,87.31 Q155.905,87.31 155.191,86.89 Q154.477,86.47 154.099,85.777 Q153.868,85.357 153.784,84.811 Q153.7,84.265 153.7,83.614 L153.7,80.107 Q153.7,79.456 153.784,78.91 Q153.868,78.364 154.099,77.944 Q154.477,77.251 155.191,76.831 Q155.905,76.411 156.892,76.411 Q157.627,76.411 158.226,76.663 Q158.824,76.915 159.234,77.367 Q159.643,77.818 159.864,78.427 Q160.084,79.036 160.084,79.729 L160.084,82.669 z M155.842,80.989 L157.942,80.989 L157.942,79.771 Q157.942,79.162 157.659,78.858 Q157.375,78.553 156.892,78.553 Q156.409,78.553 156.126,78.858 Q155.842,79.162 155.842,79.771 z" fill="#1B1A19"/>
      <path d="M165.565,76.537 L167.707,76.537 L167.707,87.184 L165.565,87.184 z M165.565,72.232 L167.707,72.232 L167.707,74.374 L165.565,74.374 z" fill="#1B1A19"/>
      <path d="M169.471,76.537 L171.613,76.537 L171.613,77.566 L171.655,77.566 Q171.991,77.062 172.464,76.737 Q172.936,76.411 173.671,76.411 Q174.07,76.411 174.469,76.548 Q174.868,76.684 175.183,76.999 Q175.498,77.314 175.687,77.808 Q175.876,78.301 175.876,79.015 L175.876,87.184 L173.734,87.184 L173.734,79.813 Q173.734,79.225 173.461,78.889 Q173.188,78.553 172.684,78.553 Q172.075,78.553 171.844,78.931 Q171.613,79.309 171.613,80.023 L171.613,87.184 L169.471,87.184 z" fill="#1B1A19"/>
      <path d="M177.64,73.303 L179.782,73.303 L179.782,76.537 L181.105,76.537 L181.105,78.217 L179.782,78.217 L179.782,84.118 Q179.782,84.496 179.856,84.706 Q179.929,84.916 180.087,85.021 Q180.244,85.126 180.496,85.147 Q180.748,85.168 181.105,85.168 L181.105,87.184 L180.223,87.184 Q179.488,87.184 178.995,86.953 Q178.501,86.722 178.207,86.365 Q177.913,86.008 177.777,85.557 Q177.64,85.105 177.64,84.685 L177.64,78.217 L176.569,78.217 L176.569,76.537 L177.64,76.537 z" fill="#1B1A19"/>
      <path d="M183.877,82.669 L183.877,84.118 Q183.877,84.622 184.161,84.895 Q184.444,85.168 184.927,85.168 Q185.536,85.168 185.736,84.811 Q185.935,84.454 185.977,84.097 L188.119,84.097 Q188.119,84.769 187.899,85.357 Q187.678,85.945 187.258,86.365 Q186.838,86.806 186.25,87.058 Q185.662,87.31 184.927,87.31 Q183.94,87.31 183.226,86.89 Q182.512,86.47 182.134,85.777 Q181.903,85.357 181.819,84.811 Q181.735,84.265 181.735,83.614 L181.735,80.107 Q181.735,79.456 181.819,78.91 Q181.903,78.364 182.134,77.944 Q182.512,77.251 183.226,76.831 Q183.94,76.411 184.927,76.411 Q185.662,76.411 186.261,76.663 Q186.859,76.915 187.269,77.367 Q187.678,77.818 187.899,78.427 Q188.119,79.036 188.119,79.729 L188.119,82.669 z M183.877,80.989 L185.977,80.989 L185.977,79.771 Q185.977,79.162 185.694,78.858 Q185.41,78.553 184.927,78.553 Q184.444,78.553 184.161,78.858 Q183.877,79.162 183.877,79.771 z" fill="#1B1A19"/>
      <path d="M189.694,76.537 L191.836,76.537 L191.836,77.671 Q192.487,77.083 193.117,76.747 Q193.747,76.411 194.671,76.411 L194.671,78.679 Q194.356,78.553 194.02,78.553 Q193.684,78.553 193.296,78.669 Q192.907,78.784 192.582,79.057 Q192.256,79.33 192.046,79.771 Q191.836,80.212 191.836,80.863 L191.836,87.184 L189.694,87.184 z" fill="#1B1A19"/>
      <path d="M195.532,76.537 L197.674,76.537 L197.674,77.566 L197.716,77.566 Q198.052,77.062 198.525,76.737 Q198.997,76.411 199.732,76.411 Q200.131,76.411 200.53,76.548 Q200.929,76.684 201.244,76.999 Q201.559,77.314 201.748,77.808 Q201.937,78.301 201.937,79.015 L201.937,87.184 L199.795,87.184 L199.795,79.813 Q199.795,79.225 199.522,78.889 Q199.249,78.553 198.745,78.553 Q198.136,78.553 197.905,78.931 Q197.674,79.309 197.674,80.023 L197.674,87.184 L195.532,87.184 z" fill="#1B1A19"/>
      <path d="M205.654,82.669 L205.654,84.118 Q205.654,84.622 205.938,84.895 Q206.221,85.168 206.704,85.168 Q207.313,85.168 207.513,84.811 Q207.712,84.454 207.754,84.097 L209.896,84.097 Q209.896,84.769 209.676,85.357 Q209.455,85.945 209.035,86.365 Q208.615,86.806 208.027,87.058 Q207.439,87.31 206.704,87.31 Q205.717,87.31 205.003,86.89 Q204.289,86.47 203.911,85.777 Q203.68,85.357 203.596,84.811 Q203.512,84.265 203.512,83.614 L203.512,80.107 Q203.512,79.456 203.596,78.91 Q203.68,78.364 203.911,77.944 Q204.289,77.251 205.003,76.831 Q205.717,76.411 206.704,76.411 Q207.439,76.411 208.038,76.663 Q208.636,76.915 209.046,77.367 Q209.455,77.818 209.676,78.427 Q209.896,79.036 209.896,79.729 L209.896,82.669 z M205.654,80.989 L207.754,80.989 L207.754,79.771 Q207.754,79.162 207.471,78.858 Q207.187,78.553 206.704,78.553 Q206.221,78.553 205.938,78.858 Q205.654,79.162 205.654,79.771 z" fill="#1B1A19"/>
      <path d="M211.471,73.303 L213.613,73.303 L213.613,76.537 L214.936,76.537 L214.936,78.217 L213.613,78.217 L213.613,84.118 Q213.613,84.496 213.687,84.706 Q213.76,84.916 213.918,85.021 Q214.075,85.126 214.327,85.147 Q214.579,85.168 214.936,85.168 L214.936,87.184 L214.054,87.184 Q213.319,87.184 212.826,86.953 Q212.332,86.722 212.038,86.365 Q211.744,86.008 211.608,85.557 Q211.471,85.105 211.471,84.685 L211.471,78.217 L210.4,78.217 L210.4,76.537 L211.471,76.537 z" fill="#1B1A19"/>
      <path d="M219.514,87.184 L217.624,87.184 L214.852,76.537 L217.12,76.537 L218.548,83.341 L218.59,83.341 L220.018,76.537 L222.286,76.537 z" fill="#1B1A19"/>
      <path d="M223.147,76.537 L225.289,76.537 L225.289,77.671 Q225.94,77.083 226.57,76.747 Q227.2,76.411 228.124,76.411 L228.124,78.679 Q227.809,78.553 227.473,78.553 Q227.137,78.553 226.749,78.669 Q226.36,78.784 226.035,79.057 Q225.709,79.33 225.499,79.771 Q225.289,80.212 225.289,80.863 L225.289,87.184 L223.147,87.184 z" fill="#1B1A19"/>
      <path d="M228.985,76.537 L231.127,76.537 L231.127,87.184 L228.985,87.184 z M228.985,72.232 L231.127,72.232 L231.127,74.374 L228.985,74.374 z" fill="#1B1A19"/>
      <path d="M232.891,76.537 L235.033,76.537 L235.033,88.318 Q235.033,89.893 234.046,90.691 Q233.059,91.489 231.547,91.489 L231.547,89.473 Q231.925,89.473 232.188,89.389 Q232.45,89.305 232.608,89.085 Q232.765,88.864 232.828,88.486 Q232.891,88.108 232.891,87.52 z M232.891,72.232 L235.033,72.232 L235.033,74.374 L232.891,74.374 z" fill="#1B1A19"/>
      <path d="M236.797,72.232 L238.939,72.232 L238.939,77.566 L238.981,77.566 Q239.317,77.062 239.79,76.737 Q240.262,76.411 240.997,76.411 Q241.396,76.411 241.795,76.548 Q242.194,76.684 242.509,76.999 Q242.824,77.314 243.013,77.808 Q243.202,78.301 243.202,79.015 L243.202,87.184 L241.06,87.184 L241.06,79.813 Q241.06,79.225 240.787,78.889 Q240.514,78.553 240.01,78.553 Q239.401,78.553 239.17,78.931 Q238.939,79.309 238.939,80.023 L238.939,87.184 L236.797,87.184 z" fill="#1B1A19"/>
      <path d="M246.919,82.669 L246.919,84.118 Q246.919,84.622 247.203,84.895 Q247.486,85.168 247.969,85.168 Q248.578,85.168 248.778,84.811 Q248.977,84.454 249.019,84.097 L251.161,84.097 Q251.161,84.769 250.941,85.357 Q250.72,85.945 250.3,86.365 Q249.88,86.806 249.292,87.058 Q248.704,87.31 247.969,87.31 Q246.982,87.31 246.268,86.89 Q245.554,86.47 245.176,85.777 Q244.945,85.357 244.861,84.811 Q244.777,84.265 244.777,83.614 L244.777,80.107 Q244.777,79.456 244.861,78.91 Q244.945,78.364 245.176,77.944 Q245.554,77.251 246.268,76.831 Q246.982,76.411 247.969,76.411 Q248.704,76.411 249.303,76.663 Q249.901,76.915 250.311,77.367 Q250.72,77.818 250.941,78.427 Q251.161,79.036 251.161,79.729 L251.161,82.669 z M246.919,80.989 L249.019,80.989 L249.019,79.771 Q249.019,79.162 248.736,78.858 Q248.452,78.553 247.969,78.553 Q247.486,78.553 247.203,78.858 Q246.919,79.162 246.919,79.771 z" fill="#1B1A19"/>
      <path d="M252.736,76.537 L254.878,76.537 L254.878,87.184 L252.736,87.184 z M252.736,72.232 L254.878,72.232 L254.878,74.374 L252.736,74.374 z" fill="#1B1A19"/>
      <path d="M258.784,83.719 Q258.784,84.37 259.036,84.769 Q259.288,85.168 259.834,85.168 Q260.317,85.168 260.611,84.801 Q260.905,84.433 260.905,83.845 L260.905,79.708 Q260.905,79.204 260.601,78.879 Q260.296,78.553 259.834,78.553 Q259.225,78.553 259.005,78.931 Q258.784,79.309 258.784,79.813 z M260.905,86.218 Q260.695,86.449 260.506,86.649 Q260.317,86.848 260.086,86.995 Q259.855,87.142 259.561,87.226 Q259.267,87.31 258.868,87.31 Q257.545,87.31 256.999,86.302 Q256.81,85.945 256.726,85.42 Q256.642,84.895 256.642,84.013 L256.642,79.96 Q256.642,78.805 256.705,78.259 Q256.768,77.713 256.978,77.377 Q257.251,76.957 257.682,76.684 Q258.112,76.411 258.889,76.411 Q259.519,76.411 260.013,76.695 Q260.506,76.978 260.863,77.503 L260.905,77.503 L260.905,72.232 L263.047,72.232 L263.047,87.184 L260.905,87.184 z" fill="#1B1A19"/>
      <path d="M270.25,74.248 L267.772,74.248 L267.772,72.232 L274.87,72.232 L274.87,74.248 L272.392,74.248 L272.392,87.184 L270.25,87.184 z" fill="#1B1A19"/>
      <path d="M274.198,80.107 Q274.198,79.456 274.282,78.91 Q274.366,78.364 274.597,77.944 Q274.975,77.251 275.689,76.831 Q276.403,76.411 277.39,76.411 Q278.377,76.411 279.091,76.831 Q279.805,77.251 280.183,77.944 Q280.414,78.364 280.498,78.91 Q280.582,79.456 280.582,80.107 L280.582,83.614 Q280.582,84.265 280.498,84.811 Q280.414,85.357 280.183,85.777 Q279.805,86.47 279.091,86.89 Q278.377,87.31 277.39,87.31 Q276.403,87.31 275.689,86.89 Q274.975,86.47 274.597,85.777 Q274.366,85.357 274.282,84.811 Q274.198,84.265 274.198,83.614 z M276.34,83.95 Q276.34,84.559 276.624,84.864 Q276.907,85.168 277.39,85.168 Q277.873,85.168 278.157,84.864 Q278.44,84.559 278.44,83.95 L278.44,79.771 Q278.44,79.162 278.157,78.858 Q277.873,78.553 277.39,78.553 Q276.907,78.553 276.624,78.858 Q276.34,79.162 276.34,79.771 z" fill="#1B1A19"/>
      <path d="M281.968,80.107 Q281.968,79.456 282.052,78.91 Q282.136,78.364 282.367,77.944 Q282.745,77.251 283.459,76.831 Q284.173,76.411 285.16,76.411 Q286.147,76.411 286.861,76.831 Q287.575,77.251 287.953,77.944 Q288.184,78.364 288.268,78.91 Q288.352,79.456 288.352,80.107 L288.352,83.614 Q288.352,84.265 288.268,84.811 Q288.184,85.357 287.953,85.777 Q287.575,86.47 286.861,86.89 Q286.147,87.31 285.16,87.31 Q284.173,87.31 283.459,86.89 Q282.745,86.47 282.367,85.777 Q282.136,85.357 282.052,84.811 Q281.968,84.265 281.968,83.614 z M284.11,83.95 Q284.11,84.559 284.394,84.864 Q284.677,85.168 285.16,85.168 Q285.643,85.168 285.927,84.864 Q286.21,84.559 286.21,83.95 L286.21,79.771 Q286.21,79.162 285.927,78.858 Q285.643,78.553 285.16,78.553 Q284.677,78.553 284.394,78.858 Q284.11,79.162 284.11,79.771 z" fill="#1B1A19"/>
      <path d="M289.801,72.232 L291.943,72.232 L291.943,84.181 Q291.943,84.79 292.164,85.011 Q292.384,85.231 292.993,85.294 L292.993,87.31 Q292.258,87.31 291.66,87.195 Q291.061,87.079 290.652,86.754 Q290.242,86.428 290.022,85.84 Q289.801,85.252 289.801,84.328 z" fill="#1B1A19"/>
      <path d="M293.833,72.232 L295.975,72.232 L295.975,77.503 L296.017,77.503 Q296.374,76.978 296.868,76.695 Q297.361,76.411 297.991,76.411 Q298.768,76.411 299.199,76.684 Q299.629,76.957 299.902,77.377 Q300.112,77.713 300.175,78.259 Q300.238,78.805 300.238,79.96 L300.238,84.013 Q300.238,84.895 300.154,85.42 Q300.07,85.945 299.881,86.302 Q299.335,87.31 298.012,87.31 Q297.214,87.31 296.794,86.995 Q296.374,86.68 295.975,86.218 L295.975,87.184 L293.833,87.184 z M298.096,79.813 Q298.096,79.309 297.876,78.931 Q297.655,78.553 297.046,78.553 Q296.584,78.553 296.28,78.879 Q295.975,79.204 295.975,79.708 L295.975,83.845 Q295.975,84.433 296.269,84.801 Q296.563,85.168 297.046,85.168 Q297.592,85.168 297.844,84.769 Q298.096,84.37 298.096,83.719 z" fill="#1B1A19"/>
      <path d="M301.813,80.107 Q301.813,79.456 301.897,78.91 Q301.981,78.364 302.212,77.944 Q302.59,77.251 303.304,76.831 Q304.018,76.411 305.005,76.411 Q305.992,76.411 306.706,76.831 Q307.42,77.251 307.798,77.944 Q308.029,78.364 308.113,78.91 Q308.197,79.456 308.197,80.107 L308.197,83.614 Q308.197,84.265 308.113,84.811 Q308.029,85.357 307.798,85.777 Q307.42,86.47 306.706,86.89 Q305.992,87.31 305.005,87.31 Q304.018,87.31 303.304,86.89 Q302.59,86.47 302.212,85.777 Q301.981,85.357 301.897,84.811 Q301.813,84.265 301.813,83.614 z M303.955,83.95 Q303.955,84.559 304.239,84.864 Q304.522,85.168 305.005,85.168 Q305.488,85.168 305.772,84.864 Q306.055,84.559 306.055,83.95 L306.055,79.771 Q306.055,79.162 305.772,78.858 Q305.488,78.553 305.005,78.553 Q304.522,78.553 304.239,78.858 Q303.955,79.162 303.955,79.771 z" fill="#1B1A19"/>
      <path d="M311.284,81.745 L308.785,76.537 L311.053,76.537 L312.376,79.561 L313.699,76.537 L315.967,76.537 L313.426,81.745 L316.093,87.184 L313.825,87.184 L312.376,83.929 L310.927,87.184 L308.659,87.184 z" fill="#1B1A19"/>
      <path d="M320.65,76.537 L322.792,76.537 L322.792,87.184 L320.65,87.184 z M320.65,72.232 L322.792,72.232 L322.792,74.374 L320.65,74.374 z" fill="#1B1A19"/>
      <path d="M328.441,79.519 Q328.42,78.973 328.095,78.7 Q327.769,78.427 327.349,78.427 Q326.845,78.427 326.572,78.753 Q326.299,79.078 326.299,79.498 Q326.299,79.792 326.446,80.076 Q326.593,80.359 327.202,80.59 L328.462,81.094 Q329.659,81.556 330.111,82.354 Q330.562,83.152 330.562,84.097 Q330.562,84.769 330.321,85.347 Q330.079,85.924 329.659,86.365 Q329.239,86.806 328.651,87.058 Q328.063,87.31 327.37,87.31 Q326.74,87.31 326.173,87.1 Q325.606,86.89 325.176,86.491 Q324.745,86.092 324.472,85.494 Q324.199,84.895 324.178,84.097 L326.194,84.097 Q326.257,84.538 326.499,84.916 Q326.74,85.294 327.349,85.294 Q327.811,85.294 328.179,84.99 Q328.546,84.685 328.546,84.139 Q328.546,83.698 328.315,83.383 Q328.084,83.068 327.475,82.837 L326.446,82.459 Q325.438,82.081 324.861,81.336 Q324.283,80.59 324.283,79.519 Q324.283,78.847 324.535,78.27 Q324.787,77.692 325.218,77.283 Q325.648,76.873 326.215,76.642 Q326.782,76.411 327.433,76.411 Q328.084,76.411 328.641,76.653 Q329.197,76.894 329.596,77.304 Q329.995,77.713 330.226,78.291 Q330.457,78.868 330.457,79.519 z" fill="#1B1A19"/>
      <path d="M337.807,82.669 L337.807,84.118 Q337.807,84.622 338.091,84.895 Q338.374,85.168 338.857,85.168 Q339.466,85.168 339.666,84.811 Q339.865,84.454 339.907,84.097 L342.049,84.097 Q342.049,84.769 341.829,85.357 Q341.608,85.945 341.188,86.365 Q340.768,86.806 340.18,87.058 Q339.592,87.31 338.857,87.31 Q337.87,87.31 337.156,86.89 Q336.442,86.47 336.064,85.777 Q335.833,85.357 335.749,84.811 Q335.665,84.265 335.665,83.614 L335.665,80.107 Q335.665,79.456 335.749,78.91 Q335.833,78.364 336.064,77.944 Q336.442,77.251 337.156,76.831 Q337.87,76.411 338.857,76.411 Q339.592,76.411 340.191,76.663 Q340.789,76.915 341.199,77.367 Q341.608,77.818 341.829,78.427 Q342.049,79.036 342.049,79.729 L342.049,82.669 z M337.807,80.989 L339.907,80.989 L339.907,79.771 Q339.907,79.162 339.624,78.858 Q339.34,78.553 338.857,78.553 Q338.374,78.553 338.091,78.858 Q337.807,79.162 337.807,79.771 z" fill="#1B1A19"/>
      <path d="M345.577,82.669 L345.577,84.118 Q345.577,84.622 345.861,84.895 Q346.144,85.168 346.627,85.168 Q347.236,85.168 347.436,84.811 Q347.635,84.454 347.677,84.097 L349.819,84.097 Q349.819,84.769 349.599,85.357 Q349.378,85.945 348.958,86.365 Q348.538,86.806 347.95,87.058 Q347.362,87.31 346.627,87.31 Q345.64,87.31 344.926,86.89 Q344.212,86.47 343.834,85.777 Q343.603,85.357 343.519,84.811 Q343.435,84.265 343.435,83.614 L343.435,80.107 Q343.435,79.456 343.519,78.91 Q343.603,78.364 343.834,77.944 Q344.212,77.251 344.926,76.831 Q345.64,76.411 346.627,76.411 Q347.362,76.411 347.961,76.663 Q348.559,76.915 348.969,77.367 Q349.378,77.818 349.599,78.427 Q349.819,79.036 349.819,79.729 L349.819,82.669 z M345.577,80.989 L347.677,80.989 L347.677,79.771 Q347.677,79.162 347.394,78.858 Q347.11,78.553 346.627,78.553 Q346.144,78.553 345.861,78.858 Q345.577,79.162 345.577,79.771 z" fill="#1B1A19"/>
      <path d="M351.394,76.537 L353.536,76.537 L353.536,77.566 L353.578,77.566 Q353.914,77.062 354.387,76.737 Q354.859,76.411 355.594,76.411 Q355.993,76.411 356.392,76.548 Q356.791,76.684 357.106,76.999 Q357.421,77.314 357.61,77.808 Q357.799,78.301 357.799,79.015 L357.799,87.184 L355.657,87.184 L355.657,79.813 Q355.657,79.225 355.384,78.889 Q355.111,78.553 354.607,78.553 Q353.998,78.553 353.767,78.931 Q353.536,79.309 353.536,80.023 L353.536,87.184 L351.394,87.184 z" fill="#1B1A19"/>
      <path d="M363.469,76.537 L365.611,76.537 L365.611,87.184 L363.469,87.184 z M363.469,72.232 L365.611,72.232 L365.611,74.374 L363.469,74.374 z" fill="#1B1A19"/>
      <path d="M367.375,76.537 L369.517,76.537 L369.517,77.566 L369.559,77.566 Q369.895,77.062 370.368,76.737 Q370.84,76.411 371.575,76.411 Q371.974,76.411 372.373,76.548 Q372.772,76.684 373.087,76.999 Q373.402,77.314 373.591,77.808 Q373.78,78.301 373.78,79.015 L373.78,87.184 L371.638,87.184 L371.638,79.813 Q371.638,79.225 371.365,78.889 Q371.092,78.553 370.588,78.553 Q369.979,78.553 369.748,78.931 Q369.517,79.309 369.517,80.023 L369.517,87.184 L367.375,87.184 z" fill="#1B1A19"/>
      <path d="M375.544,76.537 L377.686,76.537 L377.686,87.184 L375.544,87.184 z M375.544,72.232 L377.686,72.232 L377.686,74.374 L375.544,74.374 z" fill="#1B1A19"/>
      <path d="M379.45,73.303 L381.592,73.303 L381.592,76.537 L382.915,76.537 L382.915,78.217 L381.592,78.217 L381.592,84.118 Q381.592,84.496 381.666,84.706 Q381.739,84.916 381.897,85.021 Q382.054,85.126 382.306,85.147 Q382.558,85.168 382.915,85.168 L382.915,87.184 L382.033,87.184 Q381.298,87.184 380.805,86.953 Q380.311,86.722 380.017,86.365 Q379.723,86.008 379.587,85.557 Q379.45,85.105 379.45,84.685 L379.45,78.217 L378.379,78.217 L378.379,76.537 L379.45,76.537 z" fill="#1B1A19"/>
      <path d="M383.734,76.537 L385.876,76.537 L385.876,87.184 L383.734,87.184 z M383.734,72.232 L385.876,72.232 L385.876,74.374 L383.734,74.374 z" fill="#1B1A19"/>
      <path d="M391.693,86.092 L391.651,86.092 Q391.231,86.68 390.801,86.995 Q390.37,87.31 389.593,87.31 Q389.215,87.31 388.816,87.195 Q388.417,87.079 388.071,86.775 Q387.724,86.47 387.504,85.914 Q387.283,85.357 387.283,84.475 Q387.283,83.572 387.43,82.89 Q387.577,82.207 387.966,81.756 Q388.354,81.304 389.005,81.084 Q389.656,80.863 390.664,80.863 Q390.895,80.863 391.126,80.884 Q391.357,80.905 391.693,80.926 L391.693,79.813 Q391.693,79.267 391.462,78.91 Q391.231,78.553 390.622,78.553 Q390.202,78.553 389.856,78.826 Q389.509,79.099 389.404,79.624 L387.325,79.624 Q387.43,78.175 388.291,77.314 Q388.711,76.894 389.299,76.653 Q389.887,76.411 390.622,76.411 Q391.294,76.411 391.882,76.621 Q392.47,76.831 392.901,77.251 Q393.331,77.671 393.583,78.301 Q393.835,78.931 393.835,79.771 L393.835,87.184 L391.693,87.184 z M391.693,82.606 Q391.336,82.543 391.105,82.543 Q390.412,82.543 389.919,82.869 Q389.425,83.194 389.425,84.055 Q389.425,84.664 389.719,85.042 Q390.013,85.42 390.538,85.42 Q391.084,85.42 391.389,85.063 Q391.693,84.706 391.693,84.055 z" fill="#1B1A19"/>
      <path d="M395.41,73.303 L397.552,73.303 L397.552,76.537 L398.875,76.537 L398.875,78.217 L397.552,78.217 L397.552,84.118 Q397.552,84.496 397.626,84.706 Q397.699,84.916 397.857,85.021 Q398.014,85.126 398.266,85.147 Q398.518,85.168 398.875,85.168 L398.875,87.184 L397.993,87.184 Q397.258,87.184 396.765,86.953 Q396.271,86.722 395.977,86.365 Q395.683,86.008 395.547,85.557 Q395.41,85.105 395.41,84.685 L395.41,78.217 L394.339,78.217 L394.339,76.537 L395.41,76.537 z" fill="#1B1A19"/>
      <path d="M399.694,76.537 L401.836,76.537 L401.836,87.184 L399.694,87.184 z M399.694,72.232 L401.836,72.232 L401.836,74.374 L399.694,74.374 z" fill="#1B1A19"/>
      <path d="M405.553,82.669 L405.553,84.118 Q405.553,84.622 405.837,84.895 Q406.12,85.168 406.603,85.168 Q407.212,85.168 407.412,84.811 Q407.611,84.454 407.653,84.097 L409.795,84.097 Q409.795,84.769 409.575,85.357 Q409.354,85.945 408.934,86.365 Q408.514,86.806 407.926,87.058 Q407.338,87.31 406.603,87.31 Q405.616,87.31 404.902,86.89 Q404.188,86.47 403.81,85.777 Q403.579,85.357 403.495,84.811 Q403.411,84.265 403.411,83.614 L403.411,80.107 Q403.411,79.456 403.495,78.91 Q403.579,78.364 403.81,77.944 Q404.188,77.251 404.902,76.831 Q405.616,76.411 406.603,76.411 Q407.338,76.411 407.937,76.663 Q408.535,76.915 408.945,77.367 Q409.354,77.818 409.575,78.427 Q409.795,79.036 409.795,79.729 L409.795,82.669 z M405.553,80.989 L407.653,80.989 L407.653,79.771 Q407.653,79.162 407.37,78.858 Q407.086,78.553 406.603,78.553 Q406.12,78.553 405.837,78.858 Q405.553,79.162 405.553,79.771 z" fill="#1B1A19"/>
      <path d="M411.643,78.217 L410.593,78.217 L410.593,76.537 L411.643,76.537 L411.643,75.088 Q411.643,74.311 411.874,73.776 Q412.105,73.24 412.494,72.894 Q412.882,72.547 413.376,72.39 Q413.869,72.232 414.394,72.232 L415.381,72.232 L415.381,74.248 L414.415,74.248 Q413.785,74.248 413.785,74.983 L413.785,76.537 L415.381,76.537 L415.381,78.217 L413.785,78.217 L413.785,87.184 L411.643,87.184 z" fill="#1B1A19"/>
      <path d="M423.697,87.184 L421.807,87.184 L419.035,76.537 L421.303,76.537 L422.731,83.341 L422.773,83.341 L424.201,76.537 L426.469,76.537 z" fill="#1B1A19"/>
      <path d="M431.257,86.092 L431.215,86.092 Q430.795,86.68 430.365,86.995 Q429.934,87.31 429.157,87.31 Q428.779,87.31 428.38,87.195 Q427.981,87.079 427.635,86.775 Q427.288,86.47 427.068,85.914 Q426.847,85.357 426.847,84.475 Q426.847,83.572 426.994,82.89 Q427.141,82.207 427.53,81.756 Q427.918,81.304 428.569,81.084 Q429.22,80.863 430.228,80.863 Q430.459,80.863 430.69,80.884 Q430.921,80.905 431.257,80.926 L431.257,79.813 Q431.257,79.267 431.026,78.91 Q430.795,78.553 430.186,78.553 Q429.766,78.553 429.42,78.826 Q429.073,79.099 428.968,79.624 L426.889,79.624 Q426.994,78.175 427.855,77.314 Q428.275,76.894 428.863,76.653 Q429.451,76.411 430.186,76.411 Q430.858,76.411 431.446,76.621 Q432.034,76.831 432.465,77.251 Q432.895,77.671 433.147,78.301 Q433.399,78.931 433.399,79.771 L433.399,87.184 L431.257,87.184 z M431.257,82.606 Q430.9,82.543 430.669,82.543 Q429.976,82.543 429.483,82.869 Q428.989,83.194 428.989,84.055 Q428.989,84.664 429.283,85.042 Q429.577,85.42 430.102,85.42 Q430.648,85.42 430.953,85.063 Q431.257,84.706 431.257,84.055 z" fill="#1B1A19"/>
      <path d="M434.974,76.537 L437.116,76.537 L437.116,77.566 L437.158,77.566 Q437.494,77.062 437.967,76.737 Q438.439,76.411 439.174,76.411 Q439.573,76.411 439.972,76.548 Q440.371,76.684 440.686,76.999 Q441.001,77.314 441.19,77.808 Q441.379,78.301 441.379,79.015 L441.379,87.184 L439.237,87.184 L439.237,79.813 Q439.237,79.225 438.964,78.889 Q438.691,78.553 438.187,78.553 Q437.578,78.553 437.347,78.931 Q437.116,79.309 437.116,80.023 L437.116,87.184 L434.974,87.184 z" fill="#1B1A19"/>
      <path d="M443.143,85.042 L445.285,85.042 L445.285,87.184 L443.143,87.184 z M443.143,80.275 L445.285,80.275 L445.285,82.417 L443.143,82.417 z" fill="#1B1A19"/>
      <path d="M279.187,100.393 L279.187,94.713 L261.202,94.713 L261.202,136.837 L267.236,136.837 L267.236,118.852 L277.649,118.852 L277.649,113.172 L267.236,113.172 L267.236,100.393 z M249.843,126.898 C249.843,128.357 249.438,129.433 248.629,130.123 C247.82,130.813 246.864,131.157 245.761,131.157 C244.656,131.157 243.699,130.813 242.89,130.123 C242.082,129.433 241.678,128.357 241.678,126.898 L241.678,104.652 C241.678,103.193 242.082,102.119 242.89,101.428 C243.699,100.738 244.656,100.393 245.761,100.393 C246.864,100.393 247.82,100.738 248.629,101.428 C249.438,102.119 249.843,103.193 249.843,104.652 z M252.653,96.932 C251.685,96.084 250.601,95.443 249.4,95.01 C248.195,94.576 246.983,94.358 245.761,94.358 C244.538,94.358 243.324,94.576 242.123,95.01 C240.918,95.443 239.834,96.084 238.868,96.932 C237.901,97.78 237.123,98.855 236.531,100.157 C235.939,101.457 235.644,102.957 235.644,104.652 L235.644,126.898 C235.644,128.635 235.939,130.143 236.531,131.424 C237.123,132.706 237.901,133.771 238.868,134.619 C239.834,135.467 240.918,136.108 242.123,136.541 C243.324,136.974 244.538,137.192 245.761,137.192 C246.983,137.192 248.195,136.974 249.4,136.541 C250.601,136.108 251.685,135.467 252.653,134.619 C253.619,133.771 254.398,132.706 254.99,131.424 C255.582,130.143 255.877,128.635 255.877,126.898 L255.877,104.652 C255.877,102.957 255.582,101.457 254.99,100.157 C254.398,98.855 253.619,97.78 252.653,96.932 M217.748,97.376 C216.861,96.469 215.796,95.739 214.553,95.186 C213.311,94.635 211.94,94.358 210.441,94.358 C208.706,94.358 207.187,94.664 205.886,95.275 C204.584,95.888 203.509,96.705 202.661,97.73 C201.812,98.757 201.172,99.978 200.739,101.398 C200.304,102.818 200.087,104.318 200.087,105.894 C200.087,108.539 200.531,110.738 201.419,112.492 C202.306,114.247 204.052,115.657 206.655,116.722 L210.974,118.497 C211.723,118.812 212.325,119.109 212.779,119.384 C213.231,119.661 213.586,120.016 213.843,120.449 C214.099,120.883 214.267,121.455 214.346,122.165 C214.425,122.875 214.464,123.783 214.464,124.887 C214.464,125.833 214.425,126.701 214.346,127.489 C214.267,128.279 214.08,128.939 213.784,129.472 C213.489,130.005 213.054,130.418 212.483,130.715 C211.91,131.01 211.111,131.157 210.086,131.157 C208.548,131.157 207.454,130.715 206.803,129.827 C206.152,128.939 205.827,127.944 205.827,126.838 L205.827,124.946 L199.791,124.946 L199.791,127.194 C199.791,128.614 200.058,129.935 200.591,131.157 C201.123,132.38 201.842,133.435 202.75,134.323 C203.657,135.21 204.741,135.912 206.004,136.422 C207.266,136.935 208.627,137.192 210.086,137.192 C212.019,137.192 213.656,136.875 214.998,136.246 C216.338,135.615 217.413,134.757 218.221,133.672 C219.03,132.587 219.612,131.286 219.967,129.767 C220.322,128.249 220.499,126.602 220.499,124.828 C220.499,123.289 220.42,121.919 220.263,120.715 C220.105,119.512 219.798,118.448 219.345,117.521 C218.892,116.594 218.251,115.785 217.423,115.095 C216.595,114.405 215.509,113.804 214.168,113.29 L209.554,111.456 C208.765,111.141 208.143,110.826 207.69,110.509 C207.237,110.195 206.892,109.829 206.655,109.415 C206.418,109 206.27,108.509 206.211,107.936 C206.152,107.365 206.123,106.664 206.123,105.836 C206.123,105.125 206.182,104.445 206.3,103.794 C206.418,103.143 206.625,102.572 206.921,102.079 C207.217,101.586 207.631,101.183 208.164,100.867 C208.696,100.551 209.376,100.393 210.205,100.393 C211.743,100.393 212.838,100.895 213.489,101.902 C214.139,102.907 214.464,104.101 214.464,105.481 L214.464,106.841 L220.499,106.841 L220.499,103.883 C220.499,102.7 220.263,101.546 219.79,100.423 C219.316,99.298 218.635,98.284 217.748,97.376 M178.316,100.393 L185.297,100.393 L185.297,136.837 L191.333,136.837 L191.333,100.393 L198.314,100.393 L198.314,94.713 L178.316,94.713 z M169.442,136.837 L175.477,136.837 L175.477,94.712 L169.442,94.712 z M156.87,110.479 C156.18,111.486 154.829,111.988 152.817,111.988 L150.096,111.988 L150.096,100.393 L152.581,100.393 C154.592,100.393 155.982,100.867 156.751,101.813 C157.52,102.759 157.905,104.179 157.905,106.072 C157.905,108.005 157.56,109.475 156.87,110.479 M157.787,126.543 C157.708,127.411 157.491,128.161 157.136,128.791 C156.781,129.423 156.258,129.916 155.568,130.27 C154.877,130.626 153.921,130.803 152.699,130.803 L150.096,130.803 L150.096,117.314 L152.758,117.314 C153.862,117.314 154.749,117.453 155.42,117.727 C156.09,118.003 156.613,118.408 156.988,118.941 C157.363,119.474 157.609,120.134 157.728,120.922 C157.846,121.711 157.905,122.639 157.905,123.703 C157.905,124.729 157.865,125.676 157.787,126.543 M161.159,97.968 C160.291,96.981 159.178,96.192 157.816,95.6 C156.456,95.01 154.809,94.713 152.876,94.713 L144.061,94.713 L144.061,136.837 L152.285,136.837 C156.229,136.837 159.098,135.851 160.893,133.879 C162.687,131.907 163.584,129.067 163.584,125.359 L163.584,122.993 C163.584,120.785 163.249,119.02 162.58,117.698 C161.908,116.377 160.863,115.382 159.443,114.71 C160.114,114.316 160.706,113.893 161.218,113.438 C161.731,112.986 162.166,112.462 162.52,111.87 C162.875,111.278 163.141,110.589 163.319,109.799 C163.496,109.011 163.584,108.045 163.584,106.901 L163.584,105.362 C163.584,103.981 163.397,102.651 163.023,101.369 C162.647,100.087 162.027,98.954 161.159,97.968" fill="#1B1A19"/>
      <path d="M294.097,94.713 L312.082,94.713 L312.082,100.393 L300.131,100.393 L300.131,113.172 L310.544,113.172 L310.544,118.852 L300.131,118.852 L300.131,136.838 L294.097,136.838 z" fill="#1B1A19"/>
      <path d="M322.022,113.526 L325.453,113.526 C326.518,113.526 327.366,113.379 327.998,113.083 C328.626,112.787 329.11,112.364 329.446,111.811 C329.781,111.258 330.007,110.578 330.126,109.769 C330.244,108.962 330.303,108.025 330.303,106.96 C330.303,105.894 330.244,104.959 330.126,104.15 C330.007,103.342 329.761,102.651 329.386,102.079 C329.011,101.507 328.49,101.082 327.82,100.807 C327.147,100.531 326.261,100.393 325.157,100.393 L322.022,100.393 z M315.987,94.713 L325.689,94.713 C332.789,94.713 336.338,98.836 336.338,107.078 C336.338,109.524 335.955,111.625 335.184,113.379 C334.417,115.135 333.064,116.545 331.132,117.609 L337.639,136.837 L331.251,136.837 L325.629,118.852 L322.022,118.852 L322.022,136.837 L315.987,136.837 z" fill="#1B1A19"/>
      <path d="M341.191,94.713 L359.176,94.713 L359.176,100.393 L347.225,100.393 L347.225,112.757 L357.638,112.757 L357.638,118.438 L347.225,118.438 L347.225,130.803 L359.176,130.803 L359.176,136.838 L341.191,136.838 z" fill="#1B1A19"/>
      <path d="M363.08,94.713 L381.065,94.713 L381.065,100.393 L369.114,100.393 L369.114,112.757 L379.527,112.757 L379.527,118.438 L369.114,118.438 L369.114,130.803 L381.065,130.803 L381.065,136.838 L363.08,136.838 z" fill="#1B1A19"/>
      <path d="M391.006,131.157 L393.786,131.157 C395.482,131.157 396.686,130.735 397.397,129.886 C398.106,129.037 398.46,127.707 398.46,125.892 L398.46,105.599 C398.46,103.943 398.126,102.661 397.456,101.754 C396.783,100.846 395.561,100.393 393.786,100.393 L391.006,100.393 z M384.971,94.713 L393.904,94.713 C397.338,94.713 399.96,95.669 401.776,97.582 C403.588,99.497 404.494,102.167 404.494,105.599 L404.494,125.3 C404.494,129.245 403.539,132.153 401.626,134.027 C399.713,135.901 396.96,136.837 393.373,136.837 L384.971,136.837 z" fill="#1B1A19"/>
      <path d="M415.854,126.898 C415.854,128.357 416.257,129.433 417.066,130.123 C417.875,130.813 418.833,131.157 419.937,131.157 C421.042,131.157 421.997,130.813 422.805,130.123 C423.615,129.433 424.02,128.357 424.02,126.898 L424.02,104.651 C424.02,103.193 423.615,102.118 422.805,101.427 C421.997,100.738 421.042,100.393 419.937,100.393 C418.833,100.393 417.875,100.738 417.066,101.427 C416.257,102.118 415.854,103.193 415.854,104.651 z M409.82,104.651 C409.82,102.957 410.115,101.457 410.708,100.156 C411.299,98.855 412.077,97.78 413.045,96.931 C414.01,96.084 415.094,95.443 416.298,95.009 C417.5,94.575 418.712,94.358 419.937,94.358 C421.16,94.358 422.372,94.575 423.576,95.009 C424.778,95.443 425.861,96.084 426.83,96.931 C427.794,97.78 428.576,98.855 429.167,100.156 C429.756,101.457 430.054,102.957 430.054,104.651 L430.054,126.898 C430.054,128.634 429.756,130.143 429.167,131.424 C428.576,132.705 427.794,133.771 426.83,134.618 C425.861,135.467 424.778,136.107 423.576,136.541 C422.372,136.974 421.16,137.191 419.937,137.191 C418.712,137.191 417.5,136.974 416.298,136.541 C415.094,136.107 414.01,135.467 413.045,134.618 C412.077,133.771 411.299,132.705 410.708,131.424 C410.115,130.143 409.82,128.634 409.82,126.898 z" fill="#1B1A19"/>
      <path d="M435.378,94.713 L441.177,94.713 L448.927,117.018 L449.045,117.018 L456.737,94.713 L462.595,94.713 L462.595,136.838 L456.558,136.838 L456.558,111.219 L456.441,111.219 L450.465,129.324 L447.447,129.324 L441.531,111.219 L441.413,111.219 L441.413,136.838 L435.378,136.838 z" fill="#1B1A19"/>
      <path d="M150.806,169.275 L148.362,169.275 L144.424,149.933 L147.357,149.933 L149.557,163.434 L149.611,163.434 L151.839,149.933 L154.772,149.933 z" fill="#FFFFFF"/>
      <path d="M156.427,149.933 L164.685,149.933 L164.685,152.542 L159.198,152.542 L159.198,158.22 L163.978,158.22 L163.978,160.827 L159.198,160.827 L159.198,166.503 L164.685,166.503 L164.685,169.275 L156.427,169.275 z" fill="#FFFFFF"/>
      <path d="M169.246,158.572 L170.821,158.572 C172.75,158.572 173.049,157.485 173.049,155.557 C173.049,153.601 172.723,152.543 170.686,152.543 L169.246,152.543 z M166.475,149.933 L170.93,149.933 C174.217,149.933 175.82,151.863 175.82,155.611 C175.82,157.839 175.194,159.468 173.429,160.446 L176.417,169.275 L173.484,169.275 L170.903,161.016 L169.246,161.016 L169.246,169.275 L166.475,169.275 z" fill="#FFFFFF"/>
      <path d="M180.815,166.665 L182.091,166.665 C183.64,166.665 184.238,165.905 184.238,164.249 L184.238,154.933 C184.238,153.41 183.721,152.542 182.091,152.542 L180.815,152.542 z M178.044,149.933 L182.146,149.933 C185.27,149.933 187.008,151.808 187.008,154.933 L187.008,163.977 C187.008,167.561 185.161,169.274 181.901,169.274 L178.044,169.274 z" fill="#FFFFFF"/>
      <path d="M189.613,149.933 L197.87,149.933 L197.87,152.542 L192.384,152.542 L192.384,158.22 L197.164,158.22 L197.164,160.827 L192.384,160.827 L192.384,166.503 L197.87,166.503 L197.87,169.275 L189.613,169.275 z" fill="#FFFFFF"/>
      <path d="M202.433,166.665 L203.709,166.665 C205.258,166.665 205.855,165.905 205.855,164.249 L205.855,154.933 C205.855,153.41 205.338,152.542 203.709,152.542 L202.433,152.542 z M199.662,149.933 L203.764,149.933 C206.887,149.933 208.625,151.808 208.625,154.933 L208.625,163.977 C208.625,167.561 206.779,169.274 203.519,169.274 L199.662,169.274 z" fill="#FFFFFF"/>
      <path d="M211.312,149.933 L214.083,149.933 L214.083,169.275 L211.312,169.275 z" fill="#FFFFFF"/>
      <path d="M216.607,154.498 C216.607,151.349 218.998,149.772 221.252,149.772 C223.506,149.772 225.896,151.349 225.896,154.498 L225.896,155.476 L223.126,155.476 L223.126,154.498 C223.126,153.167 222.256,152.543 221.252,152.543 C220.247,152.543 219.378,153.167 219.378,154.498 L219.378,164.711 C219.378,166.042 220.247,166.666 221.252,166.666 C222.256,166.666 223.126,166.042 223.126,164.711 L223.126,161.07 L220.926,161.07 L220.926,158.626 L225.896,158.626 L225.896,164.711 C225.896,167.862 223.506,169.436 221.252,169.436 C218.998,169.436 216.607,167.862 216.607,164.711 z" fill="#FFFFFF"/>
      <path d="M230.159,152.542 L226.953,152.542 L226.953,149.933 L236.135,149.933 L236.135,152.542 L232.93,152.542 L232.93,169.274 L230.159,169.274 z" fill="#FFFFFF"/>
      <path d="M245.179,166.665 L246.452,166.665 C248.001,166.665 248.599,165.905 248.599,164.249 L248.599,154.933 C248.599,153.41 248.083,152.542 246.452,152.542 L245.179,152.542 z M242.408,149.933 L246.509,149.933 C249.633,149.933 251.371,151.808 251.371,154.933 L251.371,163.977 C251.371,167.561 249.523,169.274 246.264,169.274 L242.408,169.274 z" fill="#FFFFFF"/>
      <path d="M254.057,149.933 L256.827,149.933 L256.827,169.275 L254.057,169.275 z" fill="#FFFFFF"/>
      <path d="M259.35,154.498 C259.35,151.349 261.743,149.772 263.996,149.772 C266.25,149.772 268.642,151.349 268.642,154.498 L268.642,155.476 L265.871,155.476 L265.871,154.498 C265.871,153.167 265,152.543 263.996,152.543 C262.992,152.543 262.123,153.167 262.123,154.498 L262.123,164.711 C262.123,166.042 262.992,166.666 263.996,166.666 C265,166.666 265.871,166.042 265.871,164.711 L265.871,161.07 L263.669,161.07 L263.669,158.626 L268.642,158.626 L268.642,164.711 C268.642,167.862 266.25,169.436 263.996,169.436 C261.743,169.436 259.35,167.862 259.35,164.711 z" fill="#FFFFFF"/>
      <path d="M271.167,149.933 L273.937,149.933 L273.937,169.275 L271.167,169.275 z" fill="#FFFFFF"/>
      <path d="M278.442,152.542 L275.237,152.542 L275.237,149.933 L284.418,149.933 L284.418,152.542 L281.212,152.542 L281.212,169.274 L278.442,169.274 z" fill="#FFFFFF"/>
      <path d="M289.876,155.503 L289.822,155.503 L288.463,162.51 L291.236,162.51 z M288.709,149.933 L291.018,149.933 L295.337,169.274 L292.564,169.274 L291.751,165.118 L287.975,165.118 L287.159,169.274 L284.39,169.274 z" fill="#FFFFFF"/>
      <path d="M296.694,149.933 L299.465,149.933 L299.465,166.503 L304.951,166.503 L304.951,169.275 L296.694,169.275 z" fill="#FFFFFF"/>
      <path d="M306.741,149.933 L314.998,149.933 L314.998,152.542 L309.511,152.542 L309.511,158.22 L314.29,158.22 L314.29,160.827 L309.511,160.827 L309.511,166.503 L314.998,166.503 L314.998,169.275 L306.741,169.275 z" fill="#FFFFFF"/>
      <path d="M324.61,166.503 L325.803,166.503 C328.031,166.503 328.195,165.145 328.195,163.242 C328.195,161.315 327.842,160.31 325.832,160.31 L324.61,160.31 z M324.61,157.865 L325.86,157.865 C327.706,157.865 328.195,156.915 328.195,155.149 C328.195,153.438 327.57,152.542 325.751,152.542 L324.61,152.542 z M321.84,149.933 L325.885,149.933 C329.472,149.933 330.804,152.297 330.804,154.823 L330.804,155.528 C330.804,157.594 330.122,158.355 328.901,159.114 C330.205,159.739 330.804,160.908 330.804,162.919 L330.804,164.005 C330.804,167.372 329.202,169.274 325.614,169.274 L321.84,169.274 z" fill="#FFFFFF"/>
      <path d="M342.374,164.927 C342.374,167.453 340.364,169.436 337.891,169.436 C335.42,169.436 333.411,167.453 333.411,164.927 L333.411,149.933 L336.18,149.933 L336.18,164.657 C336.18,166.014 336.913,166.665 337.891,166.665 C338.869,166.665 339.601,166.014 339.601,164.657 L339.601,149.933 L342.374,149.933 z" fill="#FFFFFF"/>
      <path d="M347.747,158.572 L349.325,158.572 C351.252,158.572 351.549,157.485 351.549,155.557 C351.549,153.601 351.224,152.543 349.186,152.543 L347.747,152.543 z M344.977,149.933 L349.432,149.933 C352.72,149.933 354.322,151.863 354.322,155.611 C354.322,157.839 353.697,159.468 351.932,160.446 L354.919,169.275 L351.984,169.275 L349.403,161.016 L347.747,161.016 L347.747,169.275 L344.977,169.275 z" fill="#FFFFFF"/>
      <path d="M356.383,154.498 C356.383,151.349 358.775,149.772 361.029,149.772 C363.282,149.772 365.675,151.349 365.675,154.498 L365.675,155.476 L362.904,155.476 L362.904,154.498 C362.904,153.167 362.033,152.543 361.029,152.543 C360.025,152.543 359.156,153.167 359.156,154.498 L359.156,164.711 C359.156,166.042 360.025,166.666 361.029,166.666 C362.033,166.666 362.904,166.042 362.904,164.711 L362.904,161.07 L360.702,161.07 L360.702,158.626 L365.675,158.626 L365.675,164.711 C365.675,167.862 363.282,169.436 361.029,169.436 C358.775,169.436 356.383,167.862 356.383,164.711 z" fill="#FFFFFF"/>
      <path d="M368.117,149.933 L376.374,149.933 L376.374,152.542 L370.886,152.542 L370.886,158.22 L375.666,158.22 L375.666,160.827 L370.886,160.827 L370.886,166.503 L376.374,166.503 L376.374,169.275 L368.117,169.275 z" fill="#FFFFFF"/>
      <path d="M380.935,158.572 L382.509,158.572 C384.438,158.572 384.737,157.485 384.737,155.557 C384.737,153.601 384.412,152.543 382.374,152.543 L380.935,152.543 z M378.165,149.933 L382.617,149.933 C385.904,149.933 387.507,151.863 387.507,155.611 C387.507,157.839 386.882,159.468 385.118,160.446 L388.106,169.275 L385.172,169.275 L382.591,161.016 L380.935,161.016 L380.935,169.275 L378.165,169.275 z" fill="#FFFFFF"/>
      <path d="M392.503,158.572 L394.079,158.572 C396.008,158.572 396.305,157.485 396.305,155.557 C396.305,153.601 395.98,152.543 393.941,152.543 L392.503,152.543 z M389.732,149.933 L394.188,149.933 C397.474,149.933 399.077,151.863 399.077,155.611 C399.077,157.839 398.452,159.468 396.686,160.446 L399.673,169.275 L396.739,169.275 L394.159,161.016 L392.503,161.016 L392.503,169.275 L389.732,169.275 z" fill="#FFFFFF"/>
      <path d="M401.303,149.933 L409.559,149.933 L409.559,152.542 L404.073,152.542 L404.073,158.22 L408.853,158.22 L408.853,160.827 L404.073,160.827 L404.073,166.503 L409.559,166.503 L409.559,169.275 L401.303,169.275 z" fill="#FFFFFF"/>
      <path d="M420.15,164.956 C420.15,167.345 418.222,169.436 415.749,169.436 C413.631,169.436 411.186,168.404 411.186,164.875 L411.186,154.227 C411.186,151.7 413.006,149.772 415.695,149.772 C418.248,149.772 420.15,151.7 420.15,154.389 L420.15,155.476 L417.379,155.476 L417.379,154.552 C417.379,153.467 416.727,152.543 415.667,152.543 C414.282,152.543 413.957,153.493 413.957,154.797 L413.957,164.684 C413.957,165.798 414.392,166.666 415.641,166.666 C416.401,166.666 417.379,166.232 417.379,164.711 L417.379,163.762 L420.15,163.762 z" fill="#FFFFFF"/>
      <path d="M422.403,149.933 L425.174,149.933 L425.174,158.22 L428.596,158.22 L428.596,149.933 L431.367,149.933 L431.367,169.275 L428.596,169.275 L428.596,160.664 L425.174,160.664 L425.174,169.275 L422.403,169.275 z" fill="#FFFFFF"/>
      <path d="M435.79,152.542 L432.586,152.542 L432.586,149.933 L441.766,149.933 L441.766,152.542 L438.561,152.542 L438.561,169.274 L435.79,169.274 z" fill="#FFFFFF"/>
      <path d="M442.987,149.933 L451.244,149.933 L451.244,152.542 L445.758,152.542 L445.758,158.22 L450.538,158.22 L450.538,160.827 L445.758,160.827 L445.758,166.503 L451.244,166.503 L451.244,169.275 L442.987,169.275 z" fill="#FFFFFF"/>
      <path d="M452.929,149.933 L455.589,149.933 L459.772,161.586 L459.825,161.586 L459.825,149.933 L462.599,149.933 L462.599,169.275 L459.991,169.275 L455.753,157.647 L455.7,157.647 L455.7,169.275 L452.929,169.275 z" fill="#FFFFFF"/>
      <path d="M85.958,183.814 L85.589,183.814 C85.408,183.814 85.245,183.792 85.076,183.745 C85.073,183.742 85.069,183.742 85.065,183.742 C84.995,183.729 84.825,183.706 84.613,183.652 L84.556,183.639 C84.308,183.565 83.993,183.512 83.502,183.376 L83.284,183.296 C82.86,183.118 82.375,182.877 81.885,182.525 C81.594,182.306 81.045,181.991 80.492,181.371 C79.73,180.543 79.087,179.597 78.655,178.524 C78.32,177.66 78.109,176.672 78.112,175.596 L78.112,167.965 C78.112,166.946 78.936,166.122 79.955,166.122 C80.972,166.122 81.797,166.946 81.797,167.965 L81.797,175.596 C81.799,176.21 81.904,176.701 82.087,177.178 C82.296,177.709 82.705,178.339 83.205,178.877 L83.25,178.929 C83.315,179.02 83.588,179.222 84.028,179.526 C84.246,179.677 84.385,179.754 84.627,179.861 C84.853,179.92 85.137,179.973 85.544,180.086 C85.582,180.089 85.661,180.097 85.803,180.127 L85.958,180.127 L88.065,180.127 C89.433,180.127 91.099,180.127 93.072,180.078 L93.121,180.075 L93.597,180.075 C98.187,179.764 102.179,178.278 105.719,175.473 L105.775,175.431 C106.424,174.958 107.157,174.285 107.925,173.565 C112.299,169.117 114.431,163.998 114.448,157.748 L114.448,106.453 C114.428,100.204 112.303,95.142 107.939,90.7 C103.433,86.271 98.314,84.143 92.12,84.123 L67.948,84.124 C61.751,84.141 56.58,86.277 52.187,90.694 C47.762,95.148 45.638,100.204 45.618,106.453 L45.618,157.748 C45.619,160.611 46.058,163.173 46.931,165.602 C48.055,168.514 49.737,171.156 52.202,173.573 C54.45,175.869 57.017,177.56 59.746,178.611 C60.937,179.058 62.206,179.449 63.492,179.685 L63.535,179.694 C64.367,179.872 65.383,179.973 66.456,180.078 C67.022,180.085 67.515,180.128 67.842,180.127 C68.859,180.127 69.685,180.954 69.685,181.972 C69.685,182.99 68.859,183.816 67.842,183.816 C67.238,183.811 66.711,183.76 66.368,183.762 L66.192,183.754 C65.098,183.649 63.949,183.544 62.816,183.309 C61.258,183.02 59.789,182.566 58.437,182.06 C55.179,180.801 52.165,178.805 49.594,176.179 C46.775,173.418 44.774,170.277 43.474,166.886 L43.461,166.85 C42.439,164.01 41.93,160.991 41.931,157.748 L41.931,106.453 C41.912,99.326 44.527,93.111 49.574,88.094 C54.563,83.024 60.872,80.419 67.948,80.438 L92.12,80.437 C99.198,80.419 105.452,83.03 110.546,88.094 C115.541,93.12 118.155,99.326 118.136,106.453 L118.136,157.748 C118.153,164.874 115.546,171.127 110.546,176.159 L110.493,176.21 C109.706,176.945 108.884,177.719 107.975,178.388 C103.851,181.66 99.031,183.428 93.764,183.757 L93.646,183.762 L93.168,183.762 C91.14,183.816 89.434,183.814 88.065,183.816 C86.695,183.814 86.011,183.814 85.958,183.814" fill="#FFFFFF"/>
      <path d="M95.516,161.11 L95.403,161.227 C95.105,161.563 94.739,161.894 94.351,162.195 C92.257,163.832 89.952,164.637 87.169,164.645 L81.902,164.645 L81.902,141.684 L99.017,141.684 L99.018,152.745 C98.995,156.124 97.881,158.757 95.516,161.11 M72.535,164.642 C72.496,164.639 72.467,164.638 72.453,164.637 L72.448,164.637 L72.183,164.6 C71.505,164.551 71.016,164.5 70.628,164.398 L70.518,164.375 C69.827,164.239 69.184,164.063 68.563,163.815 C67.114,163.243 65.781,162.383 64.597,161.16 L64.55,161.11 C62.198,158.769 61.124,156.149 61.1,152.745 L61.1,141.684 L78.215,141.684 L78.215,164.646 L72.949,164.647 C72.766,164.647 72.621,164.645 72.535,164.642 M64.538,103.048 C64.548,103.04 64.557,103.03 64.567,103.022 L64.567,103.02 C66.909,100.708 69.546,99.629 72.949,99.606 L87.169,99.606 C90.508,99.631 93.097,100.696 95.515,103.036 C97.895,105.5 98.992,108.082 99.018,111.456 L99.017,137.998 L61.1,137.998 L61.1,111.456 C61.128,108.076 62.171,105.518 64.538,103.048 M98.866,99.686 C95.672,96.516 91.624,94.843 87.169,94.866 L72.949,94.868 C68.453,94.846 64.349,96.503 61.215,99.669 C61.197,99.686 61.182,99.704 61.166,99.721 C58.003,102.921 56.335,106.973 56.362,111.456 L56.36,139.843 L56.362,152.745 C56.337,157.238 57.999,161.353 61.225,164.488 C62.874,166.189 64.792,167.424 66.815,168.219 C67.747,168.592 68.668,168.839 69.545,169.014 C70.354,169.208 71.076,169.267 71.725,169.318 C72.245,169.398 72.618,169.38 72.949,169.385 L87.222,169.385 C90.951,169.385 94.418,168.188 97.272,165.928 C97.8,165.515 98.358,165.026 98.886,164.443 C102.067,161.326 103.781,157.24 103.758,152.745 L103.758,111.456 C103.783,106.931 102.036,102.878 98.866,99.686" fill="#1B1A19"/>
      <path d="M79.849,85.02 L79.849,79.857 C79.849,78.985 80.556,78.279 81.429,78.279 C82.301,78.279 83.008,78.985 83.008,79.857 L83.008,85.02 C83.008,85.893 82.301,86.601 81.429,86.601 C80.556,86.601 79.849,85.893 79.849,85.02" fill="#FFFFFF"/>
      <path d="M76.899,85.02 L76.899,79.857 C76.899,78.985 77.607,78.279 78.479,78.279 C79.351,78.279 80.06,78.985 80.06,79.857 L80.06,85.02 C80.06,85.893 79.351,86.601 78.479,86.601 C77.607,86.601 76.899,85.893 76.899,85.02" fill="#FFFFFF"/>
      <path d="M83.93,87.613 L82.665,80.502 C82.512,79.645 83.085,78.824 83.943,78.672 C84.803,78.518 85.624,79.092 85.776,79.95 L87.039,87.06 C87.193,87.919 86.62,88.739 85.76,88.892 C85.666,88.908 85.574,88.916 85.481,88.916 C84.731,88.916 84.065,88.378 83.93,87.613" fill="#FFFFFF"/>
      <path d="M74.184,85.18 L72.973,78.122 C72.826,77.265 73.403,76.447 74.263,76.3 C75.123,76.152 75.939,76.73 76.087,77.59 L77.299,84.647 C77.446,85.507 76.868,86.324 76.008,86.471 C75.918,86.486 75.828,86.494 75.74,86.494 C74.983,86.494 74.315,85.95 74.184,85.18" fill="#FFFFFF"/>
      <path d="M113.817,113.616 C112.944,113.616 112.237,112.907 112.237,112.035 C112.237,111.162 112.944,110.456 113.817,110.456 L118.978,110.456 C119.849,110.456 120.558,111.162 120.558,112.035 C120.558,112.907 119.849,113.616 118.978,113.616 z" fill="#FFFFFF"/>
      <path d="M113.817,110.719 C112.944,110.719 112.237,110.012 112.237,109.139 C112.237,108.266 112.944,107.559 113.817,107.559 L118.978,107.559 C119.85,107.559 120.558,108.266 120.558,109.139 C120.558,110.012 119.85,110.719 118.978,110.719 z" fill="#FFFFFF"/>
      <path d="M109.998,116.369 C109.843,115.511 110.415,114.69 111.273,114.536 L118.331,113.272 C119.19,113.117 120.011,113.689 120.165,114.548 C120.318,115.406 119.747,116.228 118.888,116.38 L111.831,117.646 C111.736,117.662 111.643,117.671 111.55,117.671 C110.8,117.671 110.134,117.133 109.998,116.369" fill="#FFFFFF"/>
      <path d="M112.313,106.612 C112.166,105.753 112.744,104.936 113.604,104.79 L120.713,103.578 C121.574,103.432 122.39,104.009 122.537,104.87 C122.684,105.731 122.105,106.546 121.245,106.694 L114.135,107.905 C114.046,107.921 113.956,107.927 113.869,107.927 C113.112,107.927 112.443,107.383 112.313,106.612" fill="#FFFFFF"/>
      <path d="M113.817,157.85 C112.944,157.85 112.237,157.144 112.237,156.272 C112.237,155.4 112.944,154.693 113.817,154.693 L118.978,154.693 C119.849,154.693 120.558,155.4 120.558,156.272 C120.558,157.144 119.849,157.85 118.978,157.85 z" fill="#FFFFFF"/>
      <path d="M113.816,154.902 C112.944,154.902 112.237,154.196 112.237,153.323 C112.237,152.453 112.944,151.741 113.816,151.741 L118.978,151.741 C119.85,151.741 120.558,152.453 120.558,153.323 C120.558,154.196 119.85,154.902 118.978,154.902 z" fill="#FFFFFF"/>
      <path d="M109.997,160.605 C109.844,159.748 110.416,158.926 111.273,158.772 L118.331,157.508 C119.19,157.353 120.011,157.927 120.164,158.785 C120.318,159.644 119.747,160.464 118.888,160.618 L111.83,161.884 C111.736,161.9 111.642,161.907 111.55,161.907 C110.8,161.907 110.134,161.371 109.997,160.605" fill="#FFFFFF"/>
      <path d="M112.315,150.862 C112.16,150.003 112.733,149.182 113.593,149.03 L120.703,147.765 C121.562,147.615 122.382,148.184 122.535,149.043 C122.689,149.903 122.115,150.721 121.255,150.878 L114.147,152.142 C114.052,152.157 113.959,152.165 113.867,152.165 C113.116,152.165 112.449,151.626 112.315,150.862" fill="#FFFFFF"/>
      <path d="M40.983,113.616 C40.11,113.616 39.404,112.907 39.404,112.035 C39.404,111.162 40.11,110.456 40.983,110.456 L46.145,110.456 C47.017,110.456 47.726,111.162 47.726,112.035 C47.726,112.907 47.017,113.616 46.145,113.616 z" fill="#FFFFFF"/>
      <path d="M40.983,110.719 C40.11,110.719 39.403,110.012 39.403,109.139 C39.403,108.266 40.11,107.559 40.983,107.559 L46.145,107.559 C47.017,107.559 47.725,108.266 47.725,109.139 C47.725,110.012 47.017,110.719 46.145,110.719 z" fill="#FFFFFF"/>
      <path d="M48.13,117.646 L41.073,116.38 C40.214,116.228 39.643,115.406 39.796,114.548 C39.951,113.689 40.771,113.117 41.631,113.272 L48.687,114.536 C49.547,114.69 50.117,115.511 49.963,116.369 C49.827,117.133 49.16,117.671 48.41,117.671 C48.319,117.671 48.224,117.663 48.13,117.646" fill="#FFFFFF"/>
      <path d="M45.771,107.904 L38.715,106.694 C37.854,106.545 37.277,105.729 37.424,104.869 C37.572,104.008 38.39,103.431 39.249,103.579 L46.307,104.79 C47.167,104.938 47.742,105.754 47.597,106.615 C47.464,107.385 46.797,107.927 46.042,107.927 C45.953,107.927 45.862,107.921 45.771,107.904" fill="#FFFFFF"/>
      <path d="M40.983,157.85 C40.11,157.85 39.403,157.144 39.403,156.272 C39.403,155.4 40.11,154.693 40.983,154.693 L46.145,154.693 C47.016,154.693 47.726,155.4 47.726,156.272 C47.726,157.144 47.016,157.85 46.145,157.85 z" fill="#FFFFFF"/>
      <path d="M40.983,154.902 C40.11,154.902 39.404,154.196 39.404,153.323 C39.404,152.453 40.11,151.741 40.983,151.741 L46.145,151.741 C47.016,151.741 47.724,152.453 47.724,153.323 C47.724,154.196 47.016,154.902 46.145,154.902 z" fill="#FFFFFF"/>
      <path d="M48.13,161.884 L41.073,160.617 C40.214,160.464 39.642,159.644 39.797,158.784 C39.951,157.927 40.772,157.353 41.631,157.508 L48.687,158.772 C49.546,158.926 50.117,159.747 49.963,160.605 C49.828,161.37 49.162,161.906 48.411,161.906 C48.319,161.906 48.224,161.9 48.13,161.884" fill="#FFFFFF"/>
      <path d="M45.759,152.139 L38.703,150.877 C37.844,150.721 37.273,149.9 37.428,149.04 C37.58,148.184 38.403,147.612 39.26,147.765 L46.318,149.028 C47.177,149.183 47.748,150.005 47.594,150.862 C47.457,151.625 46.792,152.164 46.041,152.164 C45.948,152.164 45.854,152.157 45.759,152.139" fill="#FFFFFF"/>
    </g>
  </g>
</svg>
