<?xml version="1.0" encoding="UTF-8"?>
<!DOCTYPE svg PUBLIC "-//W3C//DTD SVG 1.1//EN" "http://www.w3.org/Graphics/SVG/1.1/DTD/svg11.dtd">
<svg version="1.1" xmlns="http://www.w3.org/2000/svg" xmlns:xlink="http://www.w3.org/1999/xlink" x="0" y="0" width="500" height="256" viewBox="0, 0, 500, 256">
  <g id="Layer_1">
    <path d="M-13.737,-11.322 L509.373,-11.322 L509.373,267.534 L-13.737,267.534 L-13.737,-11.322 z" fill="#59A727"/>
    <g>
      <path d="M279.187,100.393 L279.187,94.713 L261.202,94.713 L261.202,136.837 L267.236,136.837 L267.236,118.852 L277.649,118.852 L277.649,113.172 L267.236,113.172 L267.236,100.393 z M249.843,126.898 C249.843,128.357 249.438,129.433 248.629,130.123 C247.82,130.813 246.864,131.157 245.761,131.157 C244.656,131.157 243.699,130.813 242.89,130.123 C242.082,129.433 241.678,128.357 241.678,126.898 L241.678,104.652 C241.678,103.193 242.082,102.119 242.89,101.428 C243.699,100.738 244.656,100.393 245.761,100.393 C246.864,100.393 247.82,100.738 248.629,101.428 C249.438,102.119 249.843,103.193 249.843,104.652 z M252.653,96.932 C251.685,96.084 250.601,95.443 249.4,95.01 C248.195,94.576 246.983,94.358 245.761,94.358 C244.538,94.358 243.324,94.576 242.123,95.01 C240.918,95.443 239.834,96.084 238.868,96.932 C237.901,97.78 237.123,98.855 236.531,100.157 C235.939,101.457 235.644,102.957 235.644,104.652 L235.644,126.898 C235.644,128.635 235.939,130.143 236.531,131.424 C237.123,132.706 237.901,133.771 238.868,134.619 C239.834,135.467 240.918,136.108 242.123,136.541 C243.324,136.974 244.538,137.192 245.761,137.192 C246.983,137.192 248.195,136.974 249.4,136.541 C250.601,136.108 251.685,135.467 252.653,134.619 C253.619,133.771 254.398,132.706 254.99,131.424 C255.582,130.143 255.877,128.635 255.877,126.898 L255.877,104.652 C255.877,102.957 255.582,101.457 254.99,100.157 C254.398,98.855 253.619,97.78 252.653,96.932 M217.748,97.376 C216.861,96.469 215.796,95.739 214.553,95.186 C213.311,94.635 211.94,94.358 210.441,94.358 C208.706,94.358 207.187,94.664 205.886,95.275 C204.584,95.888 203.509,96.705 202.661,97.73 C201.812,98.757 201.172,99.978 200.739,101.398 C200.304,102.818 200.087,104.318 200.087,105.894 C200.087,108.539 200.531,110.738 201.419,112.492 C202.306,114.247 204.052,115.657 206.655,116.722 L210.974,118.497 C211.723,118.812 212.325,119.109 212.779,119.384 C213.231,119.661 213.586,120.016 213.843,120.449 C214.099,120.883 214.267,121.455 214.346,122.165 C214.425,122.875 214.464,123.783 214.464,124.887 C214.464,125.833 214.425,126.701 214.346,127.489 C214.267,128.279 214.08,128.939 213.784,129.472 C213.489,130.005 213.054,130.418 212.483,130.715 C211.91,131.01 211.111,131.157 210.086,131.157 C208.548,131.157 207.454,130.715 206.803,129.827 C206.152,128.939 205.827,127.944 205.827,126.838 L205.827,124.946 L199.791,124.946 L199.791,127.194 C199.791,128.614 200.058,129.935 200.591,131.157 C201.123,132.38 201.842,133.435 202.75,134.323 C203.657,135.21 204.741,135.912 206.004,136.422 C207.266,136.935 208.627,137.192 210.086,137.192 C212.019,137.192 213.656,136.875 214.998,136.246 C216.338,135.615 217.413,134.757 218.221,133.672 C219.03,132.587 219.612,131.286 219.967,129.767 C220.322,128.249 220.499,126.602 220.499,124.828 C220.499,123.289 220.42,121.919 220.263,120.715 C220.105,119.512 219.798,118.448 219.345,117.521 C218.892,116.594 218.251,115.785 217.423,115.095 C216.595,114.405 215.509,113.804 214.168,113.29 L209.554,111.456 C208.765,111.141 208.143,110.826 207.69,110.509 C207.237,110.195 206.892,109.829 206.655,109.415 C206.418,109 206.27,108.509 206.211,107.936 C206.152,107.365 206.123,106.664 206.123,105.836 C206.123,105.125 206.182,104.445 206.3,103.794 C206.418,103.143 206.625,102.572 206.921,102.079 C207.217,101.586 207.631,101.183 208.164,100.867 C208.696,100.551 209.376,100.393 210.205,100.393 C211.743,100.393 212.838,100.895 213.489,101.902 C214.139,102.907 214.464,104.101 214.464,105.481 L214.464,106.841 L220.499,106.841 L220.499,103.883 C220.499,102.7 220.263,101.546 219.79,100.423 C219.316,99.298 218.635,98.284 217.748,97.376 M178.316,100.393 L185.297,100.393 L185.297,136.837 L191.333,136.837 L191.333,100.393 L198.314,100.393 L198.314,94.713 L178.316,94.713 z M169.442,136.837 L175.477,136.837 L175.477,94.712 L169.442,94.712 z M156.87,110.479 C156.18,111.486 154.829,111.988 152.817,111.988 L150.096,111.988 L150.096,100.393 L152.581,100.393 C154.592,100.393 155.982,100.867 156.751,101.813 C157.52,102.759 157.905,104.179 157.905,106.072 C157.905,108.005 157.56,109.475 156.87,110.479 M157.787,126.543 C157.708,127.411 157.491,128.161 157.136,128.791 C156.781,129.423 156.258,129.916 155.568,130.27 C154.877,130.626 153.921,130.803 152.699,130.803 L150.096,130.803 L150.096,117.314 L152.758,117.314 C153.862,117.314 154.749,117.453 155.42,117.727 C156.09,118.003 156.613,118.408 156.988,118.941 C157.363,119.474 157.609,120.134 157.728,120.922 C157.846,121.711 157.905,122.639 157.905,123.703 C157.905,124.729 157.865,125.676 157.787,126.543 M161.159,97.968 C160.291,96.981 159.178,96.192 157.816,95.6 C156.456,95.01 154.809,94.713 152.876,94.713 L144.061,94.713 L144.061,136.837 L152.285,136.837 C156.229,136.837 159.098,135.851 160.893,133.879 C162.687,131.907 163.584,129.067 163.584,125.359 L163.584,122.993 C163.584,120.785 163.249,119.02 162.58,117.698 C161.908,116.377 160.863,115.382 159.443,114.71 C160.114,114.316 160.706,113.893 161.218,113.438 C161.731,112.986 162.166,112.462 162.52,111.87 C162.875,111.278 163.141,110.589 163.319,109.799 C163.496,109.011 163.584,108.045 163.584,106.901 L163.584,105.362 C163.584,103.981 163.397,102.651 163.023,101.369 C162.647,100.087 162.027,98.954 161.159,97.968" fill="#1B1A19"/>
      <path d="M294.097,94.713 L312.082,94.713 L312.082,100.393 L300.131,100.393 L300.131,113.172 L310.544,113.172 L310.544,118.852 L300.131,118.852 L300.131,136.838 L294.097,136.838 z" fill="#1B1A19"/>
      <path d="M322.022,113.526 L325.453,113.526 C326.518,113.526 327.366,113.379 327.998,113.083 C328.626,112.787 329.11,112.364 329.446,111.811 C329.781,111.258 330.007,110.578 330.126,109.769 C330.244,108.962 330.303,108.025 330.303,106.96 C330.303,105.894 330.244,104.959 330.126,104.15 C330.007,103.342 329.761,102.651 329.386,102.079 C329.011,101.507 328.49,101.082 327.82,100.807 C327.147,100.531 326.261,100.393 325.157,100.393 L322.022,100.393 z M315.987,94.713 L325.689,94.713 C332.789,94.713 336.338,98.836 336.338,107.078 C336.338,109.524 335.955,111.625 335.184,113.379 C334.417,115.135 333.064,116.545 331.132,117.609 L337.639,136.837 L331.251,136.837 L325.629,118.852 L322.022,118.852 L322.022,136.837 L315.987,136.837 z" fill="#1B1A19"/>
      <path d="M341.191,94.713 L359.176,94.713 L359.176,100.393 L347.225,100.393 L347.225,112.757 L357.638,112.757 L357.638,118.438 L347.225,118.438 L347.225,130.803 L359.176,130.803 L359.176,136.838 L341.191,136.838 z" fill="#1B1A19"/>
      <path d="M363.08,94.713 L381.065,94.713 L381.065,100.393 L369.114,100.393 L369.114,112.757 L379.527,112.757 L379.527,118.438 L369.114,118.438 L369.114,130.803 L381.065,130.803 L381.065,136.838 L363.08,136.838 z" fill="#1B1A19"/>
      <path d="M391.006,131.157 L393.786,131.157 C395.482,131.157 396.686,130.735 397.397,129.886 C398.106,129.037 398.46,127.707 398.46,125.892 L398.46,105.599 C398.46,103.943 398.126,102.661 397.456,101.754 C396.783,100.846 395.561,100.393 393.786,100.393 L391.006,100.393 z M384.971,94.713 L393.904,94.713 C397.338,94.713 399.96,95.669 401.776,97.582 C403.588,99.497 404.494,102.167 404.494,105.599 L404.494,125.3 C404.494,129.245 403.539,132.153 401.626,134.027 C399.713,135.901 396.96,136.837 393.373,136.837 L384.971,136.837 z" fill="#1B1A19"/>
      <path d="M415.854,126.898 C415.854,128.357 416.257,129.433 417.066,130.123 C417.875,130.813 418.833,131.157 419.937,131.157 C421.042,131.157 421.997,130.813 422.805,130.123 C423.615,129.433 424.02,128.357 424.02,126.898 L424.02,104.651 C424.02,103.193 423.615,102.118 422.805,101.427 C421.997,100.738 421.042,100.393 419.937,100.393 C418.833,100.393 417.875,100.738 417.066,101.427 C416.257,102.118 415.854,103.193 415.854,104.651 z M409.82,104.651 C409.82,102.957 410.115,101.457 410.708,100.156 C411.299,98.855 412.077,97.78 413.045,96.931 C414.01,96.084 415.094,95.443 416.298,95.009 C417.5,94.575 418.712,94.358 419.937,94.358 C421.16,94.358 422.372,94.575 423.576,95.009 C424.778,95.443 425.861,96.084 426.83,96.931 C427.794,97.78 428.576,98.855 429.167,100.156 C429.756,101.457 430.054,102.957 430.054,104.651 L430.054,126.898 C430.054,128.634 429.756,130.143 429.167,131.424 C428.576,132.705 427.794,133.771 426.83,134.618 C425.861,135.467 424.778,136.107 423.576,136.541 C422.372,136.974 421.16,137.191 419.937,137.191 C418.712,137.191 417.5,136.974 416.298,136.541 C415.094,136.107 414.01,135.467 413.045,134.618 C412.077,133.771 411.299,132.705 410.708,131.424 C410.115,130.143 409.82,128.634 409.82,126.898 z" fill="#1B1A19"/>
      <path d="M435.378,94.713 L441.177,94.713 L448.927,117.018 L449.045,117.018 L456.737,94.713 L462.595,94.713 L462.595,136.838 L456.558,136.838 L456.558,111.219 L456.441,111.219 L450.465,129.324 L447.447,129.324 L441.531,111.219 L441.413,111.219 L441.413,136.838 L435.378,136.838 z" fill="#1B1A19"/>
      <path d="M150.806,169.275 L148.362,169.275 L144.424,149.933 L147.357,149.933 L149.557,163.434 L149.611,163.434 L151.839,149.933 L154.772,149.933 z" fill="#FFFFFF"/>
      <path d="M156.427,149.933 L164.685,149.933 L164.685,152.542 L159.198,152.542 L159.198,158.22 L163.978,158.22 L163.978,160.827 L159.198,160.827 L159.198,166.503 L164.685,166.503 L164.685,169.275 L156.427,169.275 z" fill="#FFFFFF"/>
      <path d="M169.246,158.572 L170.821,158.572 C172.75,158.572 173.049,157.485 173.049,155.557 C173.049,153.601 172.723,152.543 170.686,152.543 L169.246,152.543 z M166.475,149.933 L170.93,149.933 C174.217,149.933 175.82,151.863 175.82,155.611 C175.82,157.839 175.194,159.468 173.429,160.446 L176.417,169.275 L173.484,169.275 L170.903,161.016 L169.246,161.016 L169.246,169.275 L166.475,169.275 z" fill="#FFFFFF"/>
      <path d="M180.815,166.665 L182.091,166.665 C183.64,166.665 184.238,165.905 184.238,164.249 L184.238,154.933 C184.238,153.41 183.721,152.542 182.091,152.542 L180.815,152.542 z M178.044,149.933 L182.146,149.933 C185.27,149.933 187.008,151.808 187.008,154.933 L187.008,163.977 C187.008,167.561 185.161,169.274 181.901,169.274 L178.044,169.274 z" fill="#FFFFFF"/>
      <path d="M189.613,149.933 L197.87,149.933 L197.87,152.542 L192.384,152.542 L192.384,158.22 L197.164,158.22 L197.164,160.827 L192.384,160.827 L192.384,166.503 L197.87,166.503 L197.87,169.275 L189.613,169.275 z" fill="#FFFFFF"/>
      <path d="M202.433,166.665 L203.709,166.665 C205.258,166.665 205.855,165.905 205.855,164.249 L205.855,154.933 C205.855,153.41 205.338,152.542 203.709,152.542 L202.433,152.542 z M199.662,149.933 L203.764,149.933 C206.887,149.933 208.625,151.808 208.625,154.933 L208.625,163.977 C208.625,167.561 206.779,169.274 203.519,169.274 L199.662,169.274 z" fill="#FFFFFF"/>
      <path d="M211.312,149.933 L214.083,149.933 L214.083,169.275 L211.312,169.275 z" fill="#FFFFFF"/>
      <path d="M216.607,154.498 C216.607,151.349 218.998,149.772 221.252,149.772 C223.506,149.772 225.896,151.349 225.896,154.498 L225.896,155.476 L223.126,155.476 L223.126,154.498 C223.126,153.167 222.256,152.543 221.252,152.543 C220.247,152.543 219.378,153.167 219.378,154.498 L219.378,164.711 C219.378,166.042 220.247,166.666 221.252,166.666 C222.256,166.666 223.126,166.042 223.126,164.711 L223.126,161.07 L220.926,161.07 L220.926,158.626 L225.896,158.626 L225.896,164.711 C225.896,167.862 223.506,169.436 221.252,169.436 C218.998,169.436 216.607,167.862 216.607,164.711 z" fill="#FFFFFF"/>
      <path d="M230.159,152.542 L226.953,152.542 L226.953,149.933 L236.135,149.933 L236.135,152.542 L232.93,152.542 L232.93,169.274 L230.159,169.274 z" fill="#FFFFFF"/>
      <path d="M245.179,166.665 L246.452,166.665 C248.001,166.665 248.599,165.905 248.599,164.249 L248.599,154.933 C248.599,153.41 248.083,152.542 246.452,152.542 L245.179,152.542 z M242.408,149.933 L246.509,149.933 C249.633,149.933 251.371,151.808 251.371,154.933 L251.371,163.977 C251.371,167.561 249.523,169.274 246.264,169.274 L242.408,169.274 z" fill="#FFFFFF"/>
      <path d="M254.057,149.933 L256.827,149.933 L256.827,169.275 L254.057,169.275 z" fill="#FFFFFF"/>
      <path d="M259.35,154.498 C259.35,151.349 261.743,149.772 263.996,149.772 C266.25,149.772 268.642,151.349 268.642,154.498 L268.642,155.476 L265.871,155.476 L265.871,154.498 C265.871,153.167 265,152.543 263.996,152.543 C262.992,152.543 262.123,153.167 262.123,154.498 L262.123,164.711 C262.123,166.042 262.992,166.666 263.996,166.666 C265,166.666 265.871,166.042 265.871,164.711 L265.871,161.07 L263.669,161.07 L263.669,158.626 L268.642,158.626 L268.642,164.711 C268.642,167.862 266.25,169.436 263.996,169.436 C261.743,169.436 259.35,167.862 259.35,164.711 z" fill="#FFFFFF"/>
      <path d="M271.167,149.933 L273.937,149.933 L273.937,169.275 L271.167,169.275 z" fill="#FFFFFF"/>
      <path d="M278.442,152.542 L275.237,152.542 L275.237,149.933 L284.418,149.933 L284.418,152.542 L281.212,152.542 L281.212,169.274 L278.442,169.274 z" fill="#FFFFFF"/>
      <path d="M289.876,155.503 L289.822,155.503 L288.463,162.51 L291.236,162.51 z M288.709,149.933 L291.018,149.933 L295.337,169.274 L292.564,169.274 L291.751,165.118 L287.975,165.118 L287.159,169.274 L284.39,169.274 z" fill="#FFFFFF"/>
      <path d="M296.694,149.933 L299.465,149.933 L299.465,166.503 L304.951,166.503 L304.951,169.275 L296.694,169.275 z" fill="#FFFFFF"/>
      <path d="M306.741,149.933 L314.998,149.933 L314.998,152.542 L309.511,152.542 L309.511,158.22 L314.29,158.22 L314.29,160.827 L309.511,160.827 L309.511,166.503 L314.998,166.503 L314.998,169.275 L306.741,169.275 z" fill="#FFFFFF"/>
      <path d="M324.61,166.503 L325.803,166.503 C328.031,166.503 328.195,165.145 328.195,163.242 C328.195,161.315 327.842,160.31 325.832,160.31 L324.61,160.31 z M324.61,157.865 L325.86,157.865 C327.706,157.865 328.195,156.915 328.195,155.149 C328.195,153.438 327.57,152.542 325.751,152.542 L324.61,152.542 z M321.84,149.933 L325.885,149.933 C329.472,149.933 330.804,152.297 330.804,154.823 L330.804,155.528 C330.804,157.594 330.122,158.355 328.901,159.114 C330.205,159.739 330.804,160.908 330.804,162.919 L330.804,164.005 C330.804,167.372 329.202,169.274 325.614,169.274 L321.84,169.274 z" fill="#FFFFFF"/>
      <path d="M342.374,164.927 C342.374,167.453 340.364,169.436 337.891,169.436 C335.42,169.436 333.411,167.453 333.411,164.927 L333.411,149.933 L336.18,149.933 L336.18,164.657 C336.18,166.014 336.913,166.665 337.891,166.665 C338.869,166.665 339.601,166.014 339.601,164.657 L339.601,149.933 L342.374,149.933 z" fill="#FFFFFF"/>
      <path d="M347.747,158.572 L349.325,158.572 C351.252,158.572 351.549,157.485 351.549,155.557 C351.549,153.601 351.224,152.543 349.186,152.543 L347.747,152.543 z M344.977,149.933 L349.432,149.933 C352.72,149.933 354.322,151.863 354.322,155.611 C354.322,157.839 353.697,159.468 351.932,160.446 L354.919,169.275 L351.984,169.275 L349.403,161.016 L347.747,161.016 L347.747,169.275 L344.977,169.275 z" fill="#FFFFFF"/>
      <path d="M356.383,154.498 C356.383,151.349 358.775,149.772 361.029,149.772 C363.282,149.772 365.675,151.349 365.675,154.498 L365.675,155.476 L362.904,155.476 L362.904,154.498 C362.904,153.167 362.033,152.543 361.029,152.543 C360.025,152.543 359.156,153.167 359.156,154.498 L359.156,164.711 C359.156,166.042 360.025,166.666 361.029,166.666 C362.033,166.666 362.904,166.042 362.904,164.711 L362.904,161.07 L360.702,161.07 L360.702,158.626 L365.675,158.626 L365.675,164.711 C365.675,167.862 363.282,169.436 361.029,169.436 C358.775,169.436 356.383,167.862 356.383,164.711 z" fill="#FFFFFF"/>
      <path d="M368.117,149.933 L376.374,149.933 L376.374,152.542 L370.886,152.542 L370.886,158.22 L375.666,158.22 L375.666,160.827 L370.886,160.827 L370.886,166.503 L376.374,166.503 L376.374,169.275 L368.117,169.275 z" fill="#FFFFFF"/>
      <path d="M380.935,158.572 L382.509,158.572 C384.438,158.572 384.737,157.485 384.737,155.557 C384.737,153.601 384.412,152.543 382.374,152.543 L380.935,152.543 z M378.165,149.933 L382.617,149.933 C385.904,149.933 387.507,151.863 387.507,155.611 C387.507,157.839 386.882,159.468 385.118,160.446 L388.106,169.275 L385.172,169.275 L382.591,161.016 L380.935,161.016 L380.935,169.275 L378.165,169.275 z" fill="#FFFFFF"/>
      <path d="M392.503,158.572 L394.079,158.572 C396.008,158.572 396.305,157.485 396.305,155.557 C396.305,153.601 395.98,152.543 393.941,152.543 L392.503,152.543 z M389.732,149.933 L394.188,149.933 C397.474,149.933 399.077,151.863 399.077,155.611 C399.077,157.839 398.452,159.468 396.686,160.446 L399.673,169.275 L396.739,169.275 L394.159,161.016 L392.503,161.016 L392.503,169.275 L389.732,169.275 z" fill="#FFFFFF"/>
      <path d="M401.303,149.933 L409.559,149.933 L409.559,152.542 L404.073,152.542 L404.073,158.22 L408.853,158.22 L408.853,160.827 L404.073,160.827 L404.073,166.503 L409.559,166.503 L409.559,169.275 L401.303,169.275 z" fill="#FFFFFF"/>
      <path d="M420.15,164.956 C420.15,167.345 418.222,169.436 415.749,169.436 C413.631,169.436 411.186,168.404 411.186,164.875 L411.186,154.227 C411.186,151.7 413.006,149.772 415.695,149.772 C418.248,149.772 420.15,151.7 420.15,154.389 L420.15,155.476 L417.379,155.476 L417.379,154.552 C417.379,153.467 416.727,152.543 415.667,152.543 C414.282,152.543 413.957,153.493 413.957,154.797 L413.957,164.684 C413.957,165.798 414.392,166.666 415.641,166.666 C416.401,166.666 417.379,166.232 417.379,164.711 L417.379,163.762 L420.15,163.762 z" fill="#FFFFFF"/>
      <path d="M422.403,149.933 L425.174,149.933 L425.174,158.22 L428.596,158.22 L428.596,149.933 L431.367,149.933 L431.367,169.275 L428.596,169.275 L428.596,160.664 L425.174,160.664 L425.174,169.275 L422.403,169.275 z" fill="#FFFFFF"/>
      <path d="M435.79,152.542 L432.586,152.542 L432.586,149.933 L441.766,149.933 L441.766,152.542 L438.561,152.542 L438.561,169.274 L435.79,169.274 z" fill="#FFFFFF"/>
      <path d="M442.987,149.933 L451.244,149.933 L451.244,152.542 L445.758,152.542 L445.758,158.22 L450.538,158.22 L450.538,160.827 L445.758,160.827 L445.758,166.503 L451.244,166.503 L451.244,169.275 L442.987,169.275 z" fill="#FFFFFF"/>
      <path d="M452.929,149.933 L455.589,149.933 L459.772,161.586 L459.825,161.586 L459.825,149.933 L462.599,149.933 L462.599,169.275 L459.991,169.275 L455.753,157.647 L455.7,157.647 L455.7,169.275 L452.929,169.275 z" fill="#FFFFFF"/>
      <path d="M85.958,183.814 L85.589,183.814 C85.408,183.814 85.245,183.792 85.076,183.745 C85.073,183.742 85.069,183.742 85.065,183.742 C84.995,183.729 84.825,183.706 84.613,183.652 L84.556,183.639 C84.308,183.565 83.993,183.512 83.502,183.376 L83.284,183.296 C82.86,183.118 82.375,182.877 81.885,182.525 C81.594,182.306 81.045,181.991 80.492,181.371 C79.73,180.543 79.087,179.597 78.655,178.524 C78.32,177.66 78.109,176.672 78.112,175.596 L78.112,167.965 C78.112,166.946 78.936,166.122 79.955,166.122 C80.972,166.122 81.797,166.946 81.797,167.965 L81.797,175.596 C81.799,176.21 81.904,176.701 82.087,177.178 C82.296,177.709 82.705,178.339 83.205,178.877 L83.25,178.929 C83.315,179.02 83.588,179.222 84.028,179.526 C84.246,179.677 84.385,179.754 84.627,179.861 C84.853,179.92 85.137,179.973 85.544,180.086 C85.582,180.089 85.661,180.097 85.803,180.127 L85.958,180.127 L88.065,180.127 C89.433,180.127 91.099,180.127 93.072,180.078 L93.121,180.075 L93.597,180.075 C98.187,179.764 102.179,178.278 105.719,175.473 L105.775,175.431 C106.424,174.958 107.157,174.285 107.925,173.565 C112.299,169.117 114.431,163.998 114.448,157.748 L114.448,106.453 C114.428,100.204 112.303,95.142 107.939,90.7 C103.433,86.271 98.314,84.143 92.12,84.123 L67.948,84.124 C61.751,84.141 56.58,86.277 52.187,90.694 C47.762,95.148 45.638,100.204 45.618,106.453 L45.618,157.748 C45.619,160.611 46.058,163.173 46.931,165.602 C48.055,168.514 49.737,171.156 52.202,173.573 C54.45,175.869 57.017,177.56 59.746,178.611 C60.937,179.058 62.206,179.449 63.492,179.685 L63.535,179.694 C64.367,179.872 65.383,179.973 66.456,180.078 C67.022,180.085 67.515,180.128 67.842,180.127 C68.859,180.127 69.685,180.954 69.685,181.972 C69.685,182.99 68.859,183.816 67.842,183.816 C67.238,183.811 66.711,183.76 66.368,183.762 L66.192,183.754 C65.098,183.649 63.949,183.544 62.816,183.309 C61.258,183.02 59.789,182.566 58.437,182.06 C55.179,180.801 52.165,178.805 49.594,176.179 C46.775,173.418 44.774,170.277 43.474,166.886 L43.461,166.85 C42.439,164.01 41.93,160.991 41.931,157.748 L41.931,106.453 C41.912,99.326 44.527,93.111 49.574,88.094 C54.563,83.024 60.872,80.419 67.948,80.438 L92.12,80.437 C99.198,80.419 105.452,83.03 110.546,88.094 C115.541,93.12 118.155,99.326 118.136,106.453 L118.136,157.748 C118.153,164.874 115.546,171.127 110.546,176.159 L110.493,176.21 C109.706,176.945 108.884,177.719 107.975,178.388 C103.851,181.66 99.031,183.428 93.764,183.757 L93.646,183.762 L93.168,183.762 C91.14,183.816 89.434,183.814 88.065,183.816 C86.695,183.814 86.011,183.814 85.958,183.814" fill="#FFFFFF"/>
      <path d="M95.516,161.11 L95.403,161.227 C95.105,161.563 94.739,161.894 94.351,162.195 C92.257,163.832 89.952,164.637 87.169,164.645 L81.902,164.645 L81.902,141.684 L99.017,141.684 L99.018,152.745 C98.995,156.124 97.881,158.757 95.516,161.11 M72.535,164.642 C72.496,164.639 72.467,164.638 72.453,164.637 L72.448,164.637 L72.183,164.6 C71.505,164.551 71.016,164.5 70.628,164.398 L70.518,164.375 C69.827,164.239 69.184,164.063 68.563,163.815 C67.114,163.243 65.781,162.383 64.597,161.16 L64.55,161.11 C62.198,158.769 61.124,156.149 61.1,152.745 L61.1,141.684 L78.215,141.684 L78.215,164.646 L72.949,164.647 C72.766,164.647 72.621,164.645 72.535,164.642 M64.538,103.048 C64.548,103.04 64.557,103.03 64.567,103.022 L64.567,103.02 C66.909,100.708 69.546,99.629 72.949,99.606 L87.169,99.606 C90.508,99.631 93.097,100.696 95.515,103.036 C97.895,105.5 98.992,108.082 99.018,111.456 L99.017,137.998 L61.1,137.998 L61.1,111.456 C61.128,108.076 62.171,105.518 64.538,103.048 M98.866,99.686 C95.672,96.516 91.624,94.843 87.169,94.866 L72.949,94.868 C68.453,94.846 64.349,96.503 61.215,99.669 C61.197,99.686 61.182,99.704 61.166,99.721 C58.003,102.921 56.335,106.973 56.362,111.456 L56.36,139.843 L56.362,152.745 C56.337,157.238 57.999,161.353 61.225,164.488 C62.874,166.189 64.792,167.424 66.815,168.219 C67.747,168.592 68.668,168.839 69.545,169.014 C70.354,169.208 71.076,169.267 71.725,169.318 C72.245,169.398 72.618,169.38 72.949,169.385 L87.222,169.385 C90.951,169.385 94.418,168.188 97.272,165.928 C97.8,165.515 98.358,165.026 98.886,164.443 C102.067,161.326 103.781,157.24 103.758,152.745 L103.758,111.456 C103.783,106.931 102.036,102.878 98.866,99.686" fill="#1B1A19"/>
      <path d="M79.849,85.02 L79.849,79.857 C79.849,78.985 80.556,78.279 81.429,78.279 C82.301,78.279 83.008,78.985 83.008,79.857 L83.008,85.02 C83.008,85.893 82.301,86.601 81.429,86.601 C80.556,86.601 79.849,85.893 79.849,85.02" fill="#FFFFFF"/>
      <path d="M76.899,85.02 L76.899,79.857 C76.899,78.985 77.607,78.279 78.479,78.279 C79.351,78.279 80.06,78.985 80.06,79.857 L80.06,85.02 C80.06,85.893 79.351,86.601 78.479,86.601 C77.607,86.601 76.899,85.893 76.899,85.02" fill="#FFFFFF"/>
      <path d="M83.93,87.613 L82.665,80.502 C82.512,79.645 83.085,78.824 83.943,78.672 C84.803,78.518 85.624,79.092 85.776,79.95 L87.039,87.06 C87.193,87.919 86.62,88.739 85.76,88.892 C85.666,88.908 85.574,88.916 85.481,88.916 C84.731,88.916 84.065,88.378 83.93,87.613" fill="#FFFFFF"/>
      <path d="M74.184,85.18 L72.973,78.122 C72.826,77.265 73.403,76.447 74.263,76.3 C75.123,76.152 75.939,76.73 76.087,77.59 L77.299,84.647 C77.446,85.507 76.868,86.324 76.008,86.471 C75.918,86.486 75.828,86.494 75.74,86.494 C74.983,86.494 74.315,85.95 74.184,85.18" fill="#FFFFFF"/>
      <path d="M113.817,113.616 C112.944,113.616 112.237,112.907 112.237,112.035 C112.237,111.162 112.944,110.456 113.817,110.456 L118.978,110.456 C119.849,110.456 120.558,111.162 120.558,112.035 C120.558,112.907 119.849,113.616 118.978,113.616 z" fill="#FFFFFF"/>
      <path d="M113.817,110.719 C112.944,110.719 112.237,110.012 112.237,109.139 C112.237,108.266 112.944,107.559 113.817,107.559 L118.978,107.559 C119.85,107.559 120.558,108.266 120.558,109.139 C120.558,110.012 119.85,110.719 118.978,110.719 z" fill="#FFFFFF"/>
      <path d="M109.998,116.369 C109.843,115.511 110.415,114.69 111.273,114.536 L118.331,113.272 C119.19,113.117 120.011,113.689 120.165,114.548 C120.318,115.406 119.747,116.228 118.888,116.38 L111.831,117.646 C111.736,117.662 111.643,117.671 111.55,117.671 C110.8,117.671 110.134,117.133 109.998,116.369" fill="#FFFFFF"/>
      <path d="M112.313,106.612 C112.166,105.753 112.744,104.936 113.604,104.79 L120.713,103.578 C121.574,103.432 122.39,104.009 122.537,104.87 C122.684,105.731 122.105,106.546 121.245,106.694 L114.135,107.905 C114.046,107.921 113.956,107.927 113.869,107.927 C113.112,107.927 112.443,107.383 112.313,106.612" fill="#FFFFFF"/>
      <path d="M113.817,157.85 C112.944,157.85 112.237,157.144 112.237,156.272 C112.237,155.4 112.944,154.693 113.817,154.693 L118.978,154.693 C119.849,154.693 120.558,155.4 120.558,156.272 C120.558,157.144 119.849,157.85 118.978,157.85 z" fill="#FFFFFF"/>
      <path d="M113.816,154.902 C112.944,154.902 112.237,154.196 112.237,153.323 C112.237,152.453 112.944,151.741 113.816,151.741 L118.978,151.741 C119.85,151.741 120.558,152.453 120.558,153.323 C120.558,154.196 119.85,154.902 118.978,154.902 z" fill="#FFFFFF"/>
      <path d="M109.997,160.605 C109.844,159.748 110.416,158.926 111.273,158.772 L118.331,157.508 C119.19,157.353 120.011,157.927 120.164,158.785 C120.318,159.644 119.747,160.464 118.888,160.618 L111.83,161.884 C111.736,161.9 111.642,161.907 111.55,161.907 C110.8,161.907 110.134,161.371 109.997,160.605" fill="#FFFFFF"/>
      <path d="M112.315,150.862 C112.16,150.003 112.733,149.182 113.593,149.03 L120.703,147.765 C121.562,147.615 122.382,148.184 122.535,149.043 C122.689,149.903 122.115,150.721 121.255,150.878 L114.147,152.142 C114.052,152.157 113.959,152.165 113.867,152.165 C113.116,152.165 112.449,151.626 112.315,150.862" fill="#FFFFFF"/>
      <path d="M40.983,113.616 C40.11,113.616 39.404,112.907 39.404,112.035 C39.404,111.162 40.11,110.456 40.983,110.456 L46.145,110.456 C47.017,110.456 47.726,111.162 47.726,112.035 C47.726,112.907 47.017,113.616 46.145,113.616 z" fill="#FFFFFF"/>
      <path d="M40.983,110.719 C40.11,110.719 39.403,110.012 39.403,109.139 C39.403,108.266 40.11,107.559 40.983,107.559 L46.145,107.559 C47.017,107.559 47.725,108.266 47.725,109.139 C47.725,110.012 47.017,110.719 46.145,110.719 z" fill="#FFFFFF"/>
      <path d="M48.13,117.646 L41.073,116.38 C40.214,116.228 39.643,115.406 39.796,114.548 C39.951,113.689 40.771,113.117 41.631,113.272 L48.687,114.536 C49.547,114.69 50.117,115.511 49.963,116.369 C49.827,117.133 49.16,117.671 48.41,117.671 C48.319,117.671 48.224,117.663 48.13,117.646" fill="#FFFFFF"/>
      <path d="M45.771,107.904 L38.715,106.694 C37.854,106.545 37.277,105.729 37.424,104.869 C37.572,104.008 38.39,103.431 39.249,103.579 L46.307,104.79 C47.167,104.938 47.742,105.754 47.597,106.615 C47.464,107.385 46.797,107.927 46.042,107.927 C45.953,107.927 45.862,107.921 45.771,107.904" fill="#FFFFFF"/>
      <path d="M40.983,157.85 C40.11,157.85 39.403,157.144 39.403,156.272 C39.403,155.4 40.11,154.693 40.983,154.693 L46.145,154.693 C47.016,154.693 47.726,155.4 47.726,156.272 C47.726,157.144 47.016,157.85 46.145,157.85 z" fill="#FFFFFF"/>
      <path d="M40.983,154.902 C40.11,154.902 39.404,154.196 39.404,153.323 C39.404,152.453 40.11,151.741 40.983,151.741 L46.145,151.741 C47.016,151.741 47.724,152.453 47.724,153.323 C47.724,154.196 47.016,154.902 46.145,154.902 z" fill="#FFFFFF"/>
      <path d="M48.13,161.884 L41.073,160.617 C40.214,160.464 39.642,159.644 39.797,158.784 C39.951,157.927 40.772,157.353 41.631,157.508 L48.687,158.772 C49.546,158.926 50.117,159.747 49.963,160.605 C49.828,161.37 49.162,161.906 48.411,161.906 C48.319,161.906 48.224,161.9 48.13,161.884" fill="#FFFFFF"/>
      <path d="M45.759,152.139 L38.703,150.877 C37.844,150.721 37.273,149.9 37.428,149.04 C37.58,148.184 38.403,147.612 39.26,147.765 L46.318,149.028 C47.177,149.183 47.748,150.005 47.594,150.862 C47.457,151.625 46.792,152.164 46.041,152.164 C45.948,152.164 45.854,152.157 45.759,152.139" fill="#FFFFFF"/>
    </g>
    <path d="M143.987,73.676 L147.309,73.676 Q149.223,73.676 150.235,74.743 Q151.247,75.81 151.247,77.724 L151.247,85.05 Q151.247,87.25 150.18,88.295 Q149.113,89.34 147.111,89.34 L143.987,89.34 z M146.231,87.228 L147.265,87.228 Q148.211,87.228 148.607,86.755 Q149.003,86.282 149.003,85.27 L149.003,77.724 Q149.003,76.8 148.629,76.294 Q148.255,75.788 147.265,75.788 L146.231,75.788 z" fill="#000000"/>
    <path d="M155.273,84.61 L155.273,86.128 Q155.273,86.656 155.57,86.942 Q155.867,87.228 156.373,87.228 Q157.011,87.228 157.22,86.854 Q157.429,86.48 157.473,86.106 L159.717,86.106 Q159.717,86.81 159.486,87.426 Q159.255,88.042 158.815,88.482 Q158.375,88.944 157.759,89.208 Q157.143,89.472 156.373,89.472 Q155.339,89.472 154.591,89.032 Q153.843,88.592 153.447,87.866 Q153.205,87.426 153.117,86.854 Q153.029,86.282 153.029,85.6 L153.029,81.926 Q153.029,81.244 153.117,80.672 Q153.205,80.1 153.447,79.66 Q153.843,78.934 154.591,78.494 Q155.339,78.054 156.373,78.054 Q157.143,78.054 157.77,78.318 Q158.397,78.582 158.826,79.055 Q159.255,79.528 159.486,80.166 Q159.717,80.804 159.717,81.53 L159.717,84.61 z M155.273,82.85 L157.473,82.85 L157.473,81.574 Q157.473,80.936 157.176,80.617 Q156.879,80.298 156.373,80.298 Q155.867,80.298 155.57,80.617 Q155.273,80.936 155.273,81.574 z" fill="#000000"/>
    <path d="M165.657,73.676 L167.901,73.676 L167.901,89.34 L165.657,89.34 z" fill="#000000"/>
    <path d="M169.947,78.186 L172.191,78.186 L172.191,79.264 L172.235,79.264 Q172.587,78.736 173.082,78.395 Q173.577,78.054 174.347,78.054 Q174.765,78.054 175.183,78.197 Q175.601,78.34 175.931,78.67 Q176.261,79 176.459,79.517 Q176.657,80.034 176.657,80.782 L176.657,89.34 L174.413,89.34 L174.413,81.618 Q174.413,81.002 174.127,80.65 Q173.841,80.298 173.313,80.298 Q172.675,80.298 172.433,80.694 Q172.191,81.09 172.191,81.838 L172.191,89.34 L169.947,89.34 z" fill="#000000"/>
    <path d="M178.505,74.798 L180.749,74.798 L180.749,78.186 L182.135,78.186 L182.135,79.946 L180.749,79.946 L180.749,86.128 Q180.749,86.524 180.826,86.744 Q180.903,86.964 181.068,87.074 Q181.233,87.184 181.497,87.206 Q181.761,87.228 182.135,87.228 L182.135,89.34 L181.211,89.34 Q180.441,89.34 179.924,89.098 Q179.407,88.856 179.099,88.482 Q178.791,88.108 178.648,87.635 Q178.505,87.162 178.505,86.722 L178.505,79.946 L177.383,79.946 L177.383,78.186 L178.505,78.186 z" fill="#000000"/>
    <path d="M185.039,84.61 L185.039,86.128 Q185.039,86.656 185.336,86.942 Q185.633,87.228 186.139,87.228 Q186.777,87.228 186.986,86.854 Q187.195,86.48 187.239,86.106 L189.483,86.106 Q189.483,86.81 189.252,87.426 Q189.021,88.042 188.581,88.482 Q188.141,88.944 187.525,89.208 Q186.909,89.472 186.139,89.472 Q185.105,89.472 184.357,89.032 Q183.609,88.592 183.213,87.866 Q182.971,87.426 182.883,86.854 Q182.795,86.282 182.795,85.6 L182.795,81.926 Q182.795,81.244 182.883,80.672 Q182.971,80.1 183.213,79.66 Q183.609,78.934 184.357,78.494 Q185.105,78.054 186.139,78.054 Q186.909,78.054 187.536,78.318 Q188.163,78.582 188.592,79.055 Q189.021,79.528 189.252,80.166 Q189.483,80.804 189.483,81.53 L189.483,84.61 z M185.039,82.85 L187.239,82.85 L187.239,81.574 Q187.239,80.936 186.942,80.617 Q186.645,80.298 186.139,80.298 Q185.633,80.298 185.336,80.617 Q185.039,80.936 185.039,81.574 z" fill="#000000"/>
    <path d="M191.133,78.186 L193.377,78.186 L193.377,79.374 Q194.059,78.758 194.719,78.406 Q195.379,78.054 196.347,78.054 L196.347,80.43 Q196.017,80.298 195.665,80.298 Q195.313,80.298 194.906,80.419 Q194.499,80.54 194.158,80.826 Q193.817,81.112 193.597,81.574 Q193.377,82.036 193.377,82.718 L193.377,89.34 L191.133,89.34 z" fill="#000000"/>
    <path d="M197.249,78.186 L199.493,78.186 L199.493,79.264 L199.537,79.264 Q199.889,78.736 200.384,78.395 Q200.879,78.054 201.649,78.054 Q202.067,78.054 202.485,78.197 Q202.903,78.34 203.233,78.67 Q203.563,79 203.761,79.517 Q203.959,80.034 203.959,80.782 L203.959,89.34 L201.715,89.34 L201.715,81.618 Q201.715,81.002 201.429,80.65 Q201.143,80.298 200.615,80.298 Q199.977,80.298 199.735,80.694 Q199.493,81.09 199.493,81.838 L199.493,89.34 L197.249,89.34 z" fill="#000000"/>
    <path d="M207.853,84.61 L207.853,86.128 Q207.853,86.656 208.15,86.942 Q208.447,87.228 208.953,87.228 Q209.591,87.228 209.8,86.854 Q210.009,86.48 210.053,86.106 L212.297,86.106 Q212.297,86.81 212.066,87.426 Q211.835,88.042 211.395,88.482 Q210.955,88.944 210.339,89.208 Q209.723,89.472 208.953,89.472 Q207.919,89.472 207.171,89.032 Q206.423,88.592 206.027,87.866 Q205.785,87.426 205.697,86.854 Q205.609,86.282 205.609,85.6 L205.609,81.926 Q205.609,81.244 205.697,80.672 Q205.785,80.1 206.027,79.66 Q206.423,78.934 207.171,78.494 Q207.919,78.054 208.953,78.054 Q209.723,78.054 210.35,78.318 Q210.977,78.582 211.406,79.055 Q211.835,79.528 212.066,80.166 Q212.297,80.804 212.297,81.53 L212.297,84.61 z M207.853,82.85 L210.053,82.85 L210.053,81.574 Q210.053,80.936 209.756,80.617 Q209.459,80.298 208.953,80.298 Q208.447,80.298 208.15,80.617 Q207.853,80.936 207.853,81.574 z" fill="#000000"/>
    <path d="M213.947,74.798 L216.191,74.798 L216.191,78.186 L217.577,78.186 L217.577,79.946 L216.191,79.946 L216.191,86.128 Q216.191,86.524 216.268,86.744 Q216.345,86.964 216.51,87.074 Q216.675,87.184 216.939,87.206 Q217.203,87.228 217.577,87.228 L217.577,89.34 L216.653,89.34 Q215.883,89.34 215.366,89.098 Q214.849,88.856 214.541,88.482 Q214.233,88.108 214.09,87.635 Q213.947,87.162 213.947,86.722 L213.947,79.946 L212.825,79.946 L212.825,78.186 L213.947,78.186 z" fill="#000000"/>
    <path d="M222.373,89.34 L220.393,89.34 L217.489,78.186 L219.865,78.186 L221.361,85.314 L221.405,85.314 L222.901,78.186 L225.277,78.186 z" fill="#000000"/>
    <path d="M226.179,78.186 L228.423,78.186 L228.423,79.374 Q229.105,78.758 229.765,78.406 Q230.425,78.054 231.393,78.054 L231.393,80.43 Q231.063,80.298 230.711,80.298 Q230.359,80.298 229.952,80.419 Q229.545,80.54 229.204,80.826 Q228.863,81.112 228.643,81.574 Q228.423,82.036 228.423,82.718 L228.423,89.34 L226.179,89.34 z" fill="#000000"/>
    <path d="M232.295,78.186 L234.539,78.186 L234.539,89.34 L232.295,89.34 z M232.295,73.676 L234.539,73.676 L234.539,75.92 L232.295,75.92 z" fill="#000000"/>
    <path d="M236.387,78.186 L238.631,78.186 L238.631,90.528 Q238.631,92.178 237.597,93.014 Q236.563,93.85 234.979,93.85 L234.979,91.738 Q235.375,91.738 235.65,91.65 Q235.925,91.562 236.09,91.331 Q236.255,91.1 236.321,90.704 Q236.387,90.308 236.387,89.692 z M236.387,73.676 L238.631,73.676 L238.631,75.92 L236.387,75.92 z" fill="#000000"/>
    <path d="M240.479,73.676 L242.723,73.676 L242.723,79.264 L242.767,79.264 Q243.119,78.736 243.614,78.395 Q244.109,78.054 244.879,78.054 Q245.297,78.054 245.715,78.197 Q246.133,78.34 246.463,78.67 Q246.793,79 246.991,79.517 Q247.189,80.034 247.189,80.782 L247.189,89.34 L244.945,89.34 L244.945,81.618 Q244.945,81.002 244.659,80.65 Q244.373,80.298 243.845,80.298 Q243.207,80.298 242.965,80.694 Q242.723,81.09 242.723,81.838 L242.723,89.34 L240.479,89.34 z" fill="#000000"/>
    <path d="M251.083,84.61 L251.083,86.128 Q251.083,86.656 251.38,86.942 Q251.677,87.228 252.183,87.228 Q252.821,87.228 253.03,86.854 Q253.239,86.48 253.283,86.106 L255.527,86.106 Q255.527,86.81 255.296,87.426 Q255.065,88.042 254.625,88.482 Q254.185,88.944 253.569,89.208 Q252.953,89.472 252.183,89.472 Q251.149,89.472 250.401,89.032 Q249.653,88.592 249.257,87.866 Q249.015,87.426 248.927,86.854 Q248.839,86.282 248.839,85.6 L248.839,81.926 Q248.839,81.244 248.927,80.672 Q249.015,80.1 249.257,79.66 Q249.653,78.934 250.401,78.494 Q251.149,78.054 252.183,78.054 Q252.953,78.054 253.58,78.318 Q254.207,78.582 254.636,79.055 Q255.065,79.528 255.296,80.166 Q255.527,80.804 255.527,81.53 L255.527,84.61 z M251.083,82.85 L253.283,82.85 L253.283,81.574 Q253.283,80.936 252.986,80.617 Q252.689,80.298 252.183,80.298 Q251.677,80.298 251.38,80.617 Q251.083,80.936 251.083,81.574 z" fill="#000000"/>
    <path d="M257.177,78.186 L259.421,78.186 L259.421,89.34 L257.177,89.34 z M257.177,73.676 L259.421,73.676 L259.421,75.92 L257.177,75.92 z" fill="#000000"/>
    <path d="M263.513,85.71 Q263.513,86.392 263.777,86.81 Q264.041,87.228 264.613,87.228 Q265.119,87.228 265.427,86.843 Q265.735,86.458 265.735,85.842 L265.735,81.508 Q265.735,80.98 265.416,80.639 Q265.097,80.298 264.613,80.298 Q263.975,80.298 263.744,80.694 Q263.513,81.09 263.513,81.618 z M265.735,88.328 Q265.515,88.57 265.317,88.779 Q265.119,88.988 264.877,89.142 Q264.635,89.296 264.327,89.384 Q264.019,89.472 263.601,89.472 Q262.215,89.472 261.643,88.416 Q261.445,88.042 261.357,87.492 Q261.269,86.942 261.269,86.018 L261.269,81.772 Q261.269,80.562 261.335,79.99 Q261.401,79.418 261.621,79.066 Q261.907,78.626 262.358,78.34 Q262.809,78.054 263.623,78.054 Q264.283,78.054 264.8,78.351 Q265.317,78.648 265.691,79.198 L265.735,79.198 L265.735,73.676 L267.979,73.676 L267.979,89.34 L265.735,89.34 z" fill="#000000"/>
    <path d="M275.525,75.788 L272.929,75.788 L272.929,73.676 L280.365,73.676 L280.365,75.788 L277.769,75.788 L277.769,89.34 L275.525,89.34 z" fill="#000000"/>
    <path d="M279.661,81.926 Q279.661,81.244 279.749,80.672 Q279.837,80.1 280.079,79.66 Q280.475,78.934 281.223,78.494 Q281.971,78.054 283.005,78.054 Q284.039,78.054 284.787,78.494 Q285.535,78.934 285.931,79.66 Q286.173,80.1 286.261,80.672 Q286.349,81.244 286.349,81.926 L286.349,85.6 Q286.349,86.282 286.261,86.854 Q286.173,87.426 285.931,87.866 Q285.535,88.592 284.787,89.032 Q284.039,89.472 283.005,89.472 Q281.971,89.472 281.223,89.032 Q280.475,88.592 280.079,87.866 Q279.837,87.426 279.749,86.854 Q279.661,86.282 279.661,85.6 z M281.905,85.952 Q281.905,86.59 282.202,86.909 Q282.499,87.228 283.005,87.228 Q283.511,87.228 283.808,86.909 Q284.105,86.59 284.105,85.952 L284.105,81.574 Q284.105,80.936 283.808,80.617 Q283.511,80.298 283.005,80.298 Q282.499,80.298 282.202,80.617 Q281.905,80.936 281.905,81.574 z" fill="#000000"/>
    <path d="M287.801,81.926 Q287.801,81.244 287.889,80.672 Q287.977,80.1 288.219,79.66 Q288.615,78.934 289.363,78.494 Q290.111,78.054 291.145,78.054 Q292.179,78.054 292.927,78.494 Q293.675,78.934 294.071,79.66 Q294.313,80.1 294.401,80.672 Q294.489,81.244 294.489,81.926 L294.489,85.6 Q294.489,86.282 294.401,86.854 Q294.313,87.426 294.071,87.866 Q293.675,88.592 292.927,89.032 Q292.179,89.472 291.145,89.472 Q290.111,89.472 289.363,89.032 Q288.615,88.592 288.219,87.866 Q287.977,87.426 287.889,86.854 Q287.801,86.282 287.801,85.6 z M290.045,85.952 Q290.045,86.59 290.342,86.909 Q290.639,87.228 291.145,87.228 Q291.651,87.228 291.948,86.909 Q292.245,86.59 292.245,85.952 L292.245,81.574 Q292.245,80.936 291.948,80.617 Q291.651,80.298 291.145,80.298 Q290.639,80.298 290.342,80.617 Q290.045,80.936 290.045,81.574 z" fill="#000000"/>
    <path d="M296.007,73.676 L298.251,73.676 L298.251,86.194 Q298.251,86.832 298.482,87.063 Q298.713,87.294 299.351,87.36 L299.351,89.472 Q298.581,89.472 297.954,89.351 Q297.327,89.23 296.898,88.889 Q296.469,88.548 296.238,87.932 Q296.007,87.316 296.007,86.348 z" fill="#000000"/>
    <path d="M300.231,73.676 L302.475,73.676 L302.475,79.198 L302.519,79.198 Q302.893,78.648 303.41,78.351 Q303.927,78.054 304.587,78.054 Q305.401,78.054 305.852,78.34 Q306.303,78.626 306.589,79.066 Q306.809,79.418 306.875,79.99 Q306.941,80.562 306.941,81.772 L306.941,86.018 Q306.941,86.942 306.853,87.492 Q306.765,88.042 306.567,88.416 Q305.995,89.472 304.609,89.472 Q303.773,89.472 303.333,89.142 Q302.893,88.812 302.475,88.328 L302.475,89.34 L300.231,89.34 z M304.697,81.618 Q304.697,81.09 304.466,80.694 Q304.235,80.298 303.597,80.298 Q303.113,80.298 302.794,80.639 Q302.475,80.98 302.475,81.508 L302.475,85.842 Q302.475,86.458 302.783,86.843 Q303.091,87.228 303.597,87.228 Q304.169,87.228 304.433,86.81 Q304.697,86.392 304.697,85.71 z" fill="#000000"/>
    <path d="M308.591,81.926 Q308.591,81.244 308.679,80.672 Q308.767,80.1 309.009,79.66 Q309.405,78.934 310.153,78.494 Q310.901,78.054 311.935,78.054 Q312.969,78.054 313.717,78.494 Q314.465,78.934 314.861,79.66 Q315.103,80.1 315.191,80.672 Q315.279,81.244 315.279,81.926 L315.279,85.6 Q315.279,86.282 315.191,86.854 Q315.103,87.426 314.861,87.866 Q314.465,88.592 313.717,89.032 Q312.969,89.472 311.935,89.472 Q310.901,89.472 310.153,89.032 Q309.405,88.592 309.009,87.866 Q308.767,87.426 308.679,86.854 Q308.591,86.282 308.591,85.6 z M310.835,85.952 Q310.835,86.59 311.132,86.909 Q311.429,87.228 311.935,87.228 Q312.441,87.228 312.738,86.909 Q313.035,86.59 313.035,85.952 L313.035,81.574 Q313.035,80.936 312.738,80.617 Q312.441,80.298 311.935,80.298 Q311.429,80.298 311.132,80.617 Q310.835,80.936 310.835,81.574 z" fill="#000000"/>
    <path d="M318.513,83.642 L315.895,78.186 L318.271,78.186 L319.657,81.354 L321.043,78.186 L323.419,78.186 L320.757,83.642 L323.551,89.34 L321.175,89.34 L319.657,85.93 L318.139,89.34 L315.763,89.34 z" fill="#000000"/>
    <path d="M328.325,78.186 L330.569,78.186 L330.569,89.34 L328.325,89.34 z M328.325,73.676 L330.569,73.676 L330.569,75.92 L328.325,75.92 z" fill="#000000"/>
    <path d="M336.487,81.31 Q336.465,80.738 336.124,80.452 Q335.783,80.166 335.343,80.166 Q334.815,80.166 334.529,80.507 Q334.243,80.848 334.243,81.288 Q334.243,81.596 334.397,81.893 Q334.551,82.19 335.189,82.432 L336.509,82.96 Q337.763,83.444 338.236,84.28 Q338.709,85.116 338.709,86.106 Q338.709,86.81 338.456,87.415 Q338.203,88.02 337.763,88.482 Q337.323,88.944 336.707,89.208 Q336.091,89.472 335.365,89.472 Q334.705,89.472 334.111,89.252 Q333.517,89.032 333.066,88.614 Q332.615,88.196 332.329,87.569 Q332.043,86.942 332.021,86.106 L334.133,86.106 Q334.199,86.568 334.452,86.964 Q334.705,87.36 335.343,87.36 Q335.827,87.36 336.212,87.041 Q336.597,86.722 336.597,86.15 Q336.597,85.688 336.355,85.358 Q336.113,85.028 335.475,84.786 L334.397,84.39 Q333.341,83.994 332.736,83.213 Q332.131,82.432 332.131,81.31 Q332.131,80.606 332.395,80.001 Q332.659,79.396 333.11,78.967 Q333.561,78.538 334.155,78.296 Q334.749,78.054 335.431,78.054 Q336.113,78.054 336.696,78.307 Q337.279,78.56 337.697,78.989 Q338.115,79.418 338.357,80.023 Q338.599,80.628 338.599,81.31 z" fill="#000000"/>
    <path d="M346.299,84.61 L346.299,86.128 Q346.299,86.656 346.596,86.942 Q346.893,87.228 347.399,87.228 Q348.037,87.228 348.246,86.854 Q348.455,86.48 348.499,86.106 L350.743,86.106 Q350.743,86.81 350.512,87.426 Q350.281,88.042 349.841,88.482 Q349.401,88.944 348.785,89.208 Q348.169,89.472 347.399,89.472 Q346.365,89.472 345.617,89.032 Q344.869,88.592 344.473,87.866 Q344.231,87.426 344.143,86.854 Q344.055,86.282 344.055,85.6 L344.055,81.926 Q344.055,81.244 344.143,80.672 Q344.231,80.1 344.473,79.66 Q344.869,78.934 345.617,78.494 Q346.365,78.054 347.399,78.054 Q348.169,78.054 348.796,78.318 Q349.423,78.582 349.852,79.055 Q350.281,79.528 350.512,80.166 Q350.743,80.804 350.743,81.53 L350.743,84.61 z M346.299,82.85 L348.499,82.85 L348.499,81.574 Q348.499,80.936 348.202,80.617 Q347.905,80.298 347.399,80.298 Q346.893,80.298 346.596,80.617 Q346.299,80.936 346.299,81.574 z" fill="#000000"/>
    <path d="M354.439,84.61 L354.439,86.128 Q354.439,86.656 354.736,86.942 Q355.033,87.228 355.539,87.228 Q356.177,87.228 356.386,86.854 Q356.595,86.48 356.639,86.106 L358.883,86.106 Q358.883,86.81 358.652,87.426 Q358.421,88.042 357.981,88.482 Q357.541,88.944 356.925,89.208 Q356.309,89.472 355.539,89.472 Q354.505,89.472 353.757,89.032 Q353.009,88.592 352.613,87.866 Q352.371,87.426 352.283,86.854 Q352.195,86.282 352.195,85.6 L352.195,81.926 Q352.195,81.244 352.283,80.672 Q352.371,80.1 352.613,79.66 Q353.009,78.934 353.757,78.494 Q354.505,78.054 355.539,78.054 Q356.309,78.054 356.936,78.318 Q357.563,78.582 357.992,79.055 Q358.421,79.528 358.652,80.166 Q358.883,80.804 358.883,81.53 L358.883,84.61 z M354.439,82.85 L356.639,82.85 L356.639,81.574 Q356.639,80.936 356.342,80.617 Q356.045,80.298 355.539,80.298 Q355.033,80.298 354.736,80.617 Q354.439,80.936 354.439,81.574 z" fill="#000000"/>
    <path d="M360.533,78.186 L362.777,78.186 L362.777,79.264 L362.821,79.264 Q363.173,78.736 363.668,78.395 Q364.163,78.054 364.933,78.054 Q365.351,78.054 365.769,78.197 Q366.187,78.34 366.517,78.67 Q366.847,79 367.045,79.517 Q367.243,80.034 367.243,80.782 L367.243,89.34 L364.999,89.34 L364.999,81.618 Q364.999,81.002 364.713,80.65 Q364.427,80.298 363.899,80.298 Q363.261,80.298 363.019,80.694 Q362.777,81.09 362.777,81.838 L362.777,89.34 L360.533,89.34 z" fill="#000000"/>
    <path d="M373.183,78.186 L375.427,78.186 L375.427,89.34 L373.183,89.34 z M373.183,73.676 L375.427,73.676 L375.427,75.92 L373.183,75.92 z" fill="#000000"/>
    <path d="M377.275,78.186 L379.519,78.186 L379.519,79.264 L379.563,79.264 Q379.915,78.736 380.41,78.395 Q380.905,78.054 381.675,78.054 Q382.093,78.054 382.511,78.197 Q382.929,78.34 383.259,78.67 Q383.589,79 383.787,79.517 Q383.985,80.034 383.985,80.782 L383.985,89.34 L381.741,89.34 L381.741,81.618 Q381.741,81.002 381.455,80.65 Q381.169,80.298 380.641,80.298 Q380.003,80.298 379.761,80.694 Q379.519,81.09 379.519,81.838 L379.519,89.34 L377.275,89.34 z" fill="#000000"/>
    <path d="M385.833,78.186 L388.077,78.186 L388.077,89.34 L385.833,89.34 z M385.833,73.676 L388.077,73.676 L388.077,75.92 L385.833,75.92 z" fill="#000000"/>
    <path d="M389.925,74.798 L392.169,74.798 L392.169,78.186 L393.555,78.186 L393.555,79.946 L392.169,79.946 L392.169,86.128 Q392.169,86.524 392.246,86.744 Q392.323,86.964 392.488,87.074 Q392.653,87.184 392.917,87.206 Q393.181,87.228 393.555,87.228 L393.555,89.34 L392.631,89.34 Q391.861,89.34 391.344,89.098 Q390.827,88.856 390.519,88.482 Q390.211,88.108 390.068,87.635 Q389.925,87.162 389.925,86.722 L389.925,79.946 L388.803,79.946 L388.803,78.186 L389.925,78.186 z" fill="#000000"/>
    <path d="M394.413,78.186 L396.657,78.186 L396.657,89.34 L394.413,89.34 z M394.413,73.676 L396.657,73.676 L396.657,75.92 L394.413,75.92 z" fill="#000000"/>
    <path d="M402.751,88.196 L402.707,88.196 Q402.267,88.812 401.816,89.142 Q401.365,89.472 400.551,89.472 Q400.155,89.472 399.737,89.351 Q399.319,89.23 398.956,88.911 Q398.593,88.592 398.362,88.009 Q398.131,87.426 398.131,86.502 Q398.131,85.556 398.285,84.841 Q398.439,84.126 398.846,83.653 Q399.253,83.18 399.935,82.949 Q400.617,82.718 401.673,82.718 Q401.915,82.718 402.157,82.74 Q402.399,82.762 402.751,82.784 L402.751,81.618 Q402.751,81.046 402.509,80.672 Q402.267,80.298 401.629,80.298 Q401.189,80.298 400.826,80.584 Q400.463,80.87 400.353,81.42 L398.175,81.42 Q398.285,79.902 399.187,79 Q399.627,78.56 400.243,78.307 Q400.859,78.054 401.629,78.054 Q402.333,78.054 402.949,78.274 Q403.565,78.494 404.016,78.934 Q404.467,79.374 404.731,80.034 Q404.995,80.694 404.995,81.574 L404.995,89.34 L402.751,89.34 z M402.751,84.544 Q402.377,84.478 402.135,84.478 Q401.409,84.478 400.892,84.819 Q400.375,85.16 400.375,86.062 Q400.375,86.7 400.683,87.096 Q400.991,87.492 401.541,87.492 Q402.113,87.492 402.432,87.118 Q402.751,86.744 402.751,86.062 z" fill="#000000"/>
    <path d="M406.645,74.798 L408.889,74.798 L408.889,78.186 L410.275,78.186 L410.275,79.946 L408.889,79.946 L408.889,86.128 Q408.889,86.524 408.966,86.744 Q409.043,86.964 409.208,87.074 Q409.373,87.184 409.637,87.206 Q409.901,87.228 410.275,87.228 L410.275,89.34 L409.351,89.34 Q408.581,89.34 408.064,89.098 Q407.547,88.856 407.239,88.482 Q406.931,88.108 406.788,87.635 Q406.645,87.162 406.645,86.722 L406.645,79.946 L405.523,79.946 L405.523,78.186 L406.645,78.186 z" fill="#000000"/>
    <path d="M411.133,78.186 L413.377,78.186 L413.377,89.34 L411.133,89.34 z M411.133,73.676 L413.377,73.676 L413.377,75.92 L411.133,75.92 z" fill="#000000"/>
    <path d="M417.271,84.61 L417.271,86.128 Q417.271,86.656 417.568,86.942 Q417.865,87.228 418.371,87.228 Q419.009,87.228 419.218,86.854 Q419.427,86.48 419.471,86.106 L421.715,86.106 Q421.715,86.81 421.484,87.426 Q421.253,88.042 420.813,88.482 Q420.373,88.944 419.757,89.208 Q419.141,89.472 418.371,89.472 Q417.337,89.472 416.589,89.032 Q415.841,88.592 415.445,87.866 Q415.203,87.426 415.115,86.854 Q415.027,86.282 415.027,85.6 L415.027,81.926 Q415.027,81.244 415.115,80.672 Q415.203,80.1 415.445,79.66 Q415.841,78.934 416.589,78.494 Q417.337,78.054 418.371,78.054 Q419.141,78.054 419.768,78.318 Q420.395,78.582 420.824,79.055 Q421.253,79.528 421.484,80.166 Q421.715,80.804 421.715,81.53 L421.715,84.61 z M417.271,82.85 L419.471,82.85 L419.471,81.574 Q419.471,80.936 419.174,80.617 Q418.877,80.298 418.371,80.298 Q417.865,80.298 417.568,80.617 Q417.271,80.936 417.271,81.574 z" fill="#000000"/>
    <path d="M423.651,79.946 L422.551,79.946 L422.551,78.186 L423.651,78.186 L423.651,76.668 Q423.651,75.854 423.893,75.293 Q424.135,74.732 424.542,74.369 Q424.949,74.006 425.466,73.841 Q425.983,73.676 426.533,73.676 L427.567,73.676 L427.567,75.788 L426.555,75.788 Q425.895,75.788 425.895,76.558 L425.895,78.186 L427.567,78.186 L427.567,79.946 L425.895,79.946 L425.895,89.34 L423.651,89.34 z" fill="#000000"/>
    <path d="M436.279,89.34 L434.299,89.34 L431.395,78.186 L433.771,78.186 L435.267,85.314 L435.311,85.314 L436.807,78.186 L439.183,78.186 z" fill="#000000"/>
    <path d="M444.199,88.196 L444.155,88.196 Q443.715,88.812 443.264,89.142 Q442.813,89.472 441.999,89.472 Q441.603,89.472 441.185,89.351 Q440.767,89.23 440.404,88.911 Q440.041,88.592 439.81,88.009 Q439.579,87.426 439.579,86.502 Q439.579,85.556 439.733,84.841 Q439.887,84.126 440.294,83.653 Q440.701,83.18 441.383,82.949 Q442.065,82.718 443.121,82.718 Q443.363,82.718 443.605,82.74 Q443.847,82.762 444.199,82.784 L444.199,81.618 Q444.199,81.046 443.957,80.672 Q443.715,80.298 443.077,80.298 Q442.637,80.298 442.274,80.584 Q441.911,80.87 441.801,81.42 L439.623,81.42 Q439.733,79.902 440.635,79 Q441.075,78.56 441.691,78.307 Q442.307,78.054 443.077,78.054 Q443.781,78.054 444.397,78.274 Q445.013,78.494 445.464,78.934 Q445.915,79.374 446.179,80.034 Q446.443,80.694 446.443,81.574 L446.443,89.34 L444.199,89.34 z M444.199,84.544 Q443.825,84.478 443.583,84.478 Q442.857,84.478 442.34,84.819 Q441.823,85.16 441.823,86.062 Q441.823,86.7 442.131,87.096 Q442.439,87.492 442.989,87.492 Q443.561,87.492 443.88,87.118 Q444.199,86.744 444.199,86.062 z" fill="#000000"/>
    <path d="M448.093,78.186 L450.337,78.186 L450.337,79.264 L450.381,79.264 Q450.733,78.736 451.228,78.395 Q451.723,78.054 452.493,78.054 Q452.911,78.054 453.329,78.197 Q453.747,78.34 454.077,78.67 Q454.407,79 454.605,79.517 Q454.803,80.034 454.803,80.782 L454.803,89.34 L452.559,89.34 L452.559,81.618 Q452.559,81.002 452.273,80.65 Q451.987,80.298 451.459,80.298 Q450.821,80.298 450.579,80.694 Q450.337,81.09 450.337,81.838 L450.337,89.34 L448.093,89.34 z" fill="#000000"/>
    <path d="M456.651,87.096 L458.895,87.096 L458.895,89.34 L456.651,89.34 z M456.651,82.102 L458.895,82.102 L458.895,84.346 L456.651,84.346 z" fill="#000000"/>
  </g>
</svg>
